<svg xmlns="http://www.w3.org/2000/svg" viewBox="179.5175501959418 52.121448668489265 633.9685769402324 323.6522164775737" width="633.9685769402324" height="323.6522164775737">
  <path d="M208.49,141.00Q208.49,141.00,207.18,138.76Q205.87,136.53,205.78,134.51Q205.69,132.48,205.61,131.05Q205.53,129.61,205.46,128.11Q205.38,126.61,205.32,125.11Q205.26,123.61,205.85,121.04Q206.43,118.46,207.39,116.40Q208.35,114.35,209.56,112.51Q210.78,110.67,212.56,110.42Q214.34,110.17,216.57,109.20Q218.81,108.22,220.34,108.20Q221.88,108.18,223.48,108.17Q225.07,108.16,226.58,108.15Q228.09,108.14,229.59,108.13Q231.09,108.11,232.62,108.07Q234.16,108.03,235.93,108.93Q237.71,109.83,239.00,111.05Q240.30,112.28,240.82,113.98Q241.34,115.67,241.88,117.28Q242.41,118.89,242.89,120.41Q243.36,121.93,243.87,123.95Q244.38,125.96,244.42,128.13Q244.45,130.31,244.45,131.94Q244.44,133.57,244.86,136.26Q245.28,138.95,245.18,140.83Q245.07,142.71,245.52,144.83Q245.96,146.96,245.95,148.46Q245.94,149.97,246.15,153.66Q246.35,157.34,246.26,159.45Q246.16,161.56,246.15,164.66Q246.13,167.76,246.46,170.50Q246.79,173.25,246.84,175.40Q246.90,177.54,247.13,179.79Q247.35,182.03,247.81,183.64Q248.26,185.26,248.32,187.79Q248.38,190.32,248.65,192.68Q248.92,195.04,249.37,197.12Q249.81,199.19,249.96,201.35Q250.11,203.51,250.33,206.22Q250.56,208.92,250.74,210.80Q250.91,212.67,250.98,214.66Q251.05,216.64,251.01,219.01Q250.97,221.38,251.27,223.74Q251.57,226.11,251.75,227.92Q251.93,229.72,252.28,231.95Q252.64,234.18,252.70,236.72Q252.76,239.27,253.17,241.28Q253.58,243.30,254.01,245.70Q254.44,248.11,254.60,250.29Q254.77,252.48,255.20,254.41Q255.62,256.34,255.77,258.44Q255.92,260.55,256.27,262.85Q256.61,265.14,257.09,267.20Q257.57,269.25,257.74,271.39Q257.91,273.53,258.02,275.19Q258.13,276.85,258.45,279.02Q258.78,281.18,258.90,283.34Q259.02,285.50,259.46,286.99Q259.89,288.47,260.38,290.37Q260.87,292.28,261.02,294.41Q261.18,296.54,261.67,299.45Q262.16,302.36,262.32,304.08Q262.48,305.79,262.56,307.36Q262.63,308.92,262.97,310.61Q263.31,312.30,263.59,314.29Q263.87,316.28,263.94,319.13Q264.01,321.98,264.81,324.60Q265.60,327.22,265.89,329.63Q266.18,332.04,266.56,334.18Q266.93,336.32,267.59,339.06Q268.25,341.79,268.78,343.94Q269.31,346.09,269.43,347.78Q269.54,349.47,270.33,350.42Q271.12,351.36,271.23,351.73Q271.33,352.10,271.34,352.49Q271.35,352.87,271.27,353.25Q271.19,353.62,271.03,353.97Q270.86,354.32,270.61,354.61Q270.37,354.91,270.06,355.13Q269.75,355.36,269.39,355.51Q269.04,355.66,268.66,355.72Q268.28,355.77,267.90,355.74Q267.51,355.70,267.15,355.58Q266.79,355.45,266.46,355.25Q266.14,355.04,265.88,354.76Q265.61,354.48,265.43,354.14Q265.24,353.81,265.42,352.30Q265.60,350.79,265.91,348.48Q266.22,346.17,266.77,343.22Q267.32,340.26,267.44,337.62Q267.56,334.98,267.64,333.12Q267.73,331.27,267.95,327.51Q268.17,323.74,268.11,320.88Q268.04,318.01,268.02,316.52Q268.00,315.02,268.12,312.78Q268.25,310.55,267.90,309.09Q267.55,307.64,267.43,304.08Q267.32,300.53,266.22,298.77Q265.12,297.02,264.78,294.35Q264.44,291.69,264.09,289.77Q263.74,287.85,262.47,285.02Q261.19,282.20,260.88,280.31Q260.56,278.42,259.35,276.28Q258.14,274.14,256.89,271.99Q255.64,269.83,254.81,268.04Q253.98,266.25,253.03,264.78Q252.08,263.31,251.08,261.87Q250.09,260.43,248.59,259.41Q247.08,258.39,245.14,256.58Q243.19,254.77,240.80,253.90Q238.40,253.03,236.69,252.63Q234.98,252.23,232.77,251.78Q230.56,251.32,228.82,251.34Q227.08,251.35,225.46,251.43Q223.85,251.51,222.34,251.58Q220.84,251.65,218.53,252.96Q216.21,254.28,214.84,255.36Q213.46,256.44,212.44,257.90Q211.41,259.36,210.11,261.25Q208.80,263.15,207.94,265.09Q207.08,267.04,206.32,265.49Q205.57,263.94,207.33,263.87Q209.10,263.80,211.45,263.84Q213.80,263.87,215.64,263.50Q217.48,263.13,219.38,262.49Q221.29,261.85,222.77,261.62Q224.25,261.39,225.65,260.42Q227.06,259.46,229.03,259.07Q231.00,258.68,233.14,257.49Q235.27,256.29,237.86,255.29Q240.44,254.29,241.97,253.82Q243.50,253.35,245.31,253.19Q247.13,253.03,249.55,251.63Q251.98,250.23,254.56,249.14Q257.15,248.05,258.60,247.21Q260.05,246.38,262.31,245.12Q264.57,243.87,265.99,243.56Q267.40,243.26,268.80,242.67Q270.20,242.07,272.66,240.70Q275.12,239.32,277.28,238.66Q279.45,237.99,282.32,236.70Q285.19,235.40,286.68,234.52Q288.18,233.63,289.87,232.92Q291.56,232.21,293.11,231.65Q294.66,231.09,295.96,230.31Q297.25,229.54,299.72,228.11Q302.19,226.69,304.43,225.75Q306.67,224.81,308.16,224.32Q309.64,223.82,311.57,223.07Q313.50,222.32,315.03,221.73Q316.56,221.14,317.99,220.60Q319.41,220.06,320.25,218.72Q321.08,217.38,320.08,215.43Q319.08,213.48,317.78,212.23Q316.49,210.98,315.65,212.98Q314.82,214.98,313.90,217.35Q312.98,219.73,313.18,222.03Q313.38,224.34,313.39,225.86Q313.40,227.38,313.40,228.88Q313.41,230.38,313.45,232.02Q313.49,233.65,313.47,235.50Q313.45,237.34,313.46,239.37Q313.48,241.40,313.42,241.87Q313.36,242.35,313.19,242.80Q313.02,243.25,312.75,243.64Q312.48,244.04,312.12,244.35Q311.76,244.67,311.34,244.90Q310.91,245.12,310.45,245.23Q309.98,245.35,309.50,245.35Q309.02,245.35,308.55,245.23Q308.09,245.12,307.66,244.90Q307.24,244.67,306.88,244.35Q306.52,244.04,306.25,243.64Q305.98,243.25,305.81,242.80Q305.64,242.35,305.58,241.87Q305.52,241.40,308.37,239.30Q311.22,237.21,312.85,236.91Q314.48,236.62,315.59,235.53Q316.69,234.44,317.87,233.26Q319.05,232.09,319.89,230.46Q320.73,228.83,321.36,227.07Q321.98,225.30,322.24,223.81Q322.49,222.33,323.21,220.21Q323.93,218.09,323.63,216.22Q323.33,214.34,323.34,212.87Q323.35,211.41,323.34,210.88Q323.33,210.36,323.39,209.86Q323.45,209.36,323.63,208.89Q323.81,208.42,324.10,208.01Q324.38,207.60,324.76,207.26Q325.13,206.93,325.58,206.70Q326.02,206.46,326.51,206.34Q327.00,206.22,327.50,206.22Q328.00,206.22,328.49,206.34Q328.98,206.46,329.42,206.70Q329.87,206.93,330.24,207.26Q330.62,207.60,330.90,208.01Q331.19,208.42,331.37,208.89Q331.55,209.36,331.61,209.86Q331.67,210.36,331.66,212.38Q331.65,214.40,331.63,215.99Q331.61,217.58,331.47,220.29Q331.33,223.01,331.32,224.78Q331.31,226.55,331.32,228.94Q331.33,231.34,331.76,233.67Q332.20,236.00,334.11,235.56Q336.03,235.12,338.21,235.20Q340.39,235.29,341.96,234.14Q343.52,233.00,345.06,231.58Q346.59,230.16,347.50,227.97Q348.41,225.78,348.79,223.70Q349.16,221.63,349.25,220.13Q349.33,218.62,350.30,216.83Q351.27,215.04,351.71,213.03Q352.15,211.02,353.24,207.77Q354.33,204.52,354.45,202.56Q354.56,200.60,354.63,198.88Q354.71,197.15,355.12,195.57Q355.53,193.99,356.07,190.85Q356.60,187.71,357.18,184.25Q357.75,180.78,357.83,179.35Q357.91,177.93,358.34,176.17Q358.77,174.40,359.37,172.24Q359.97,170.08,360.06,168.54Q360.15,167.00,360.15,164.11Q360.14,161.22,360.18,159.27Q360.23,157.33,360.21,155.72Q360.19,154.10,360.17,152.57Q360.14,151.04,360.57,148.94Q361.00,146.84,361.01,144.39Q361.03,141.94,361.01,140.47Q361.00,139.00,360.98,137.51Q360.97,136.02,360.95,134.52Q360.94,133.03,360.88,130.49Q360.82,127.96,360.87,126.11Q360.93,124.27,360.99,122.30Q361.06,120.34,360.99,117.66Q360.93,114.98,360.92,112.10Q360.91,109.21,360.91,107.64Q360.91,106.07,360.83,103.89Q360.74,101.71,360.69,99.23Q360.65,96.75,360.67,93.98Q360.69,91.20,361.17,92.61Q361.64,94.02,361.17,96.15Q360.70,98.28,360.21,100.03Q359.72,101.78,359.15,103.60Q358.58,105.42,358.04,106.81Q357.51,108.20,357.37,111.09Q357.24,113.98,357.17,115.85Q357.10,117.72,357.01,121.11Q356.92,124.51,356.65,127.30Q356.37,130.09,356.40,131.92Q356.42,133.75,356.46,136.66Q356.50,139.58,356.40,141.97Q356.29,144.36,356.19,146.83Q356.10,149.31,356.10,151.43Q356.10,153.55,355.92,157.07Q355.74,160.59,356.08,162.88Q356.43,165.18,356.40,168.48Q356.38,171.77,356.68,174.79Q356.99,177.81,357.51,180.04Q358.03,182.27,358.86,184.66Q359.70,187.05,360.02,189.25Q360.34,191.45,361.10,193.75Q361.86,196.05,362.44,198.57Q363.01,201.09,363.81,203.95Q364.61,206.81,365.27,209.03Q365.93,211.25,366.74,214.06Q367.56,216.87,368.56,219.02Q369.56,221.17,370.60,223.18Q371.64,225.20,372.68,227.19Q373.72,229.17,374.46,230.81Q375.21,232.44,376.43,234.23Q377.65,236.01,378.48,237.67Q379.31,239.33,380.97,241.80Q382.64,244.26,384.24,245.75Q385.84,247.23,386.92,248.65Q387.99,250.08,389.09,251.49Q390.18,252.90,391.32,253.90Q392.45,254.90,393.74,256.17Q395.03,257.44,397.06,257.64Q399.09,257.85,400.79,257.60Q402.50,257.36,404.07,255.49Q405.64,253.63,407.05,252.09Q408.47,250.56,411.06,248.69Q413.66,246.82,415.36,245.05Q417.05,243.28,417.71,241.80Q418.36,240.33,419.84,238.07Q421.31,235.81,422.83,234.04Q424.35,232.27,425.85,229.13Q427.34,225.99,427.86,224.65Q428.38,223.31,428.46,221.71Q428.54,220.10,429.47,217.59Q430.40,215.08,431.34,212.08Q432.28,209.08,432.76,206.91Q433.24,204.73,433.17,202.34Q433.11,199.94,433.46,197.81Q433.81,195.68,433.70,193.26Q433.58,190.85,433.52,188.77Q433.46,186.70,433.39,185.53Q433.32,184.37,433.36,183.98Q433.41,183.60,433.54,183.24Q433.68,182.89,433.90,182.57Q434.12,182.25,434.40,182.00Q434.69,181.74,435.03,181.57Q435.37,181.39,435.74,181.30Q436.12,181.20,436.50,181.20Q436.88,181.20,437.26,181.30Q437.63,181.39,437.97,181.57Q438.31,181.74,438.60,182.00Q438.88,182.25,439.10,182.57Q439.32,182.89,439.46,183.24Q439.59,183.60,439.64,183.98Q439.68,184.37,439.19,187.55Q438.70,190.74,438.56,192.30Q438.42,193.87,438.38,195.41Q438.33,196.95,438.31,198.46Q438.30,199.97,438.29,201.47Q438.28,202.97,438.28,204.47Q438.27,205.97,438.34,208.13Q438.41,210.29,438.44,212.77Q438.47,215.25,438.53,217.28Q438.58,219.31,438.68,221.35Q438.77,223.40,439.29,225.22Q439.81,227.04,440.75,228.76Q441.69,230.47,442.78,233.05Q443.87,235.64,446.44,234.80Q449.00,233.97,450.12,232.93Q451.25,231.88,452.28,230.89Q453.31,229.89,454.16,228.60Q455.02,227.31,456.25,225.50Q457.47,223.69,458.14,221.85Q458.81,220.00,460.01,217.54Q461.21,215.08,461.98,213.39Q462.75,211.69,463.31,209.55Q463.87,207.41,464.49,205.53Q465.11,203.64,464.96,202.12Q464.80,200.59,464.80,198.95Q464.80,197.32,465.30,195.77Q465.80,194.22,465.75,192.80Q465.70,191.37,466.65,189.06Q467.59,186.76,469.61,186.21Q471.64,185.66,473.60,186.77Q475.56,187.88,476.44,190.76Q477.32,193.64,478.24,195.20Q479.17,196.77,480.22,199.35Q481.27,201.93,481.99,204.39Q482.71,206.86,483.94,208.82Q485.17,210.79,485.56,212.99Q485.95,215.20,486.65,216.53Q487.34,217.86,487.70,219.64Q488.06,221.43,488.01,223.30Q487.97,225.17,488.50,226.57Q489.04,227.97,489.54,229.48Q490.05,230.99,490.12,232.64Q490.19,234.29,490.79,235.71Q491.39,237.14,491.62,237.52Q491.84,237.91,491.97,238.34Q492.09,238.78,492.11,239.22Q492.13,239.67,492.04,240.11Q491.96,240.55,491.76,240.96Q491.57,241.37,491.29,241.71Q491.01,242.06,490.65,242.33Q490.29,242.60,489.88,242.78Q489.46,242.96,489.02,243.03Q488.58,243.10,488.13,243.07Q487.68,243.03,487.25,242.89Q486.83,242.75,486.45,242.51Q486.07,242.27,485.76,241.95Q485.44,241.63,485.09,239.84Q484.74,238.05,485.26,236.62Q485.78,235.18,485.89,232.95Q486.00,230.71,486.48,228.91Q486.96,227.11,487.05,225.24Q487.14,223.38,487.60,221.68Q488.07,219.98,488.60,218.50Q489.12,217.02,489.17,215.31Q489.22,213.61,489.19,211.97Q489.16,210.33,489.63,208.86Q490.10,207.38,491.12,204.46Q492.14,201.53,492.63,198.79Q493.12,196.04,493.67,194.11Q494.21,192.18,495.15,189.97Q496.09,187.76,497.22,184.85Q498.36,181.94,499.51,180.14Q500.67,178.34,501.84,177.34Q503.02,176.35,505.23,174.99Q507.45,173.64,510.36,174.78Q513.27,175.92,514.25,177.80Q515.22,179.68,515.74,181.29Q516.27,182.91,516.44,184.79Q516.62,186.67,517.40,188.86Q518.18,191.04,518.34,192.89Q518.51,194.74,518.45,196.69Q518.39,198.64,519.13,201.35Q519.87,204.06,520.32,205.59Q520.77,207.12,520.95,208.93Q521.13,210.74,521.16,212.32Q521.19,213.90,521.70,216.00Q522.21,218.10,522.78,220.05Q523.36,221.99,524.18,224.04Q524.99,226.09,525.54,227.62Q526.08,229.15,526.63,230.62Q527.18,232.10,527.46,234.56Q527.74,237.01,528.51,238.61Q529.28,240.20,529.37,240.59Q529.46,240.98,529.45,241.37Q529.44,241.77,529.34,242.15Q529.23,242.54,529.04,242.89Q528.85,243.23,528.58,243.52Q528.31,243.82,527.98,244.03Q527.65,244.25,527.27,244.38Q526.90,244.52,526.50,244.56Q526.11,244.60,525.71,244.54Q525.32,244.48,524.95,244.33Q524.59,244.19,524.26,243.95Q523.94,243.72,523.69,243.42Q523.43,243.11,523.25,242.76Q523.07,242.40,523.59,240.56Q524.11,238.72,524.56,236.79Q525.02,234.86,525.06,232.38Q525.11,229.91,525.07,228.26Q525.04,226.62,525.55,224.56Q526.06,222.50,526.59,220.23Q527.11,217.97,527.63,216.14Q528.15,214.31,528.23,211.64Q528.32,208.97,528.78,207.12Q529.24,205.28,529.78,202.52Q530.33,199.76,530.81,198.09Q531.29,196.41,531.84,194.21Q532.38,192.02,532.91,190.31Q533.45,188.59,534.31,187.29Q535.18,185.98,535.85,184.57Q536.51,183.16,537.82,182.24Q539.12,181.33,540.63,180.39Q542.15,179.46,544.21,179.03Q546.27,178.61,548.37,177.92Q550.47,177.22,552.30,177.02Q554.14,176.83,556.78,175.77Q559.41,174.72,561.28,174.58Q563.14,174.45,565.75,175.84Q568.36,177.22,568.72,179.67Q569.07,182.12,569.75,183.49Q570.43,184.85,570.70,186.37Q570.97,187.88,571.44,189.95Q571.91,192.01,572.23,193.55Q572.55,195.09,572.75,196.51Q572.95,197.94,573.45,199.93Q573.95,201.92,574.97,203.92Q575.99,205.91,576.50,207.86Q577.00,209.81,577.54,211.30Q578.08,212.79,579.53,215.01Q580.98,217.24,582.09,218.94Q583.20,220.65,584.69,220.95Q586.17,221.25,588.01,221.25Q589.84,221.25,591.83,221.26Q593.82,221.28,595.82,221.29Q597.82,221.30,599.82,221.30Q601.82,221.31,603.44,221.30Q605.07,221.28,606.68,219.65Q608.29,218.02,610.32,216.12Q612.36,214.22,613.49,213.03Q614.62,211.85,615.85,210.36Q617.07,208.87,618.31,207.44Q619.54,206.02,620.30,204.13Q621.06,202.25,622.09,200.59Q623.12,198.93,624.17,197.79Q625.22,196.66,625.65,194.59Q626.08,192.52,627.13,189.97Q628.18,187.41,628.70,185.67Q629.21,183.92,629.67,182.11Q630.14,180.29,630.63,178.89Q631.12,177.49,631.13,175.93Q631.14,174.37,631.16,172.15Q631.17,169.92,631.13,168.28Q631.09,166.63,631.01,164.99Q630.93,163.35,630.87,161.84Q630.80,160.34,629.36,161.10Q627.92,161.86,626.01,161.88Q624.10,161.91,622.61,161.92Q621.11,161.92,619.61,161.93Q618.11,161.94,616.49,162.55Q614.86,163.17,613.39,163.91Q611.91,164.66,610.86,165.94Q609.80,167.22,609.08,169.13Q608.36,171.04,607.90,174.12Q607.44,177.20,606.75,179.34Q606.06,181.47,606.23,183.06Q606.41,184.65,606.45,186.16Q606.49,187.66,606.49,189.13Q606.50,190.59,606.53,192.12Q606.57,193.66,606.57,195.12Q606.57,196.59,606.55,198.03Q606.54,199.47,607.41,201.32Q608.29,203.17,609.01,204.49Q609.74,205.81,611.36,205.41Q612.98,205.02,614.34,204.34Q615.71,203.65,616.88,202.84Q618.06,202.02,619.46,200.11Q620.87,198.19,621.39,195.96Q621.92,193.73,623.53,192.17Q625.14,190.62,626.27,188.95Q627.41,187.28,628.13,185.29Q628.86,183.30,629.21,181.67Q629.57,180.04,629.53,179.37Q629.50,178.71,629.63,178.24Q629.77,177.77,630.01,177.35Q630.25,176.93,630.59,176.58Q630.93,176.23,631.34,175.97Q631.75,175.71,632.21,175.56Q632.68,175.40,633.16,175.36Q633.65,175.32,634.13,175.40Q634.61,175.48,635.06,175.67Q635.50,175.86,635.89,176.15Q636.28,176.45,636.59,176.82Q636.90,177.20,637.11,177.64Q637.31,178.08,637.41,178.56Q637.51,179.04,637.49,179.52Q637.47,180.01,637.20,178.59Q636.92,177.17,637.66,178.50Q638.40,179.83,638.45,182.03Q638.50,184.23,638.90,186.02Q639.31,187.81,640.13,190.15Q640.96,192.49,641.93,193.84Q642.90,195.19,644.32,197.25Q645.75,199.30,646.68,200.64Q647.61,201.98,648.38,203.24Q649.14,204.50,650.56,206.41Q651.98,208.32,653.80,210.16Q655.63,212.01,657.62,212.69Q659.60,213.37,661.89,213.81Q664.18,214.25,666.04,214.20Q667.91,214.16,669.90,214.13Q671.90,214.10,673.86,214.13Q675.82,214.15,677.71,213.92Q679.60,213.69,682.16,213.52Q684.71,213.36,686.25,213.34Q687.79,213.31,689.15,212.85Q690.51,212.39,692.15,212.32Q693.79,212.25,695.62,211.80Q697.46,211.35,699.02,211.33Q700.57,211.32,701.96,210.55Q703.36,209.79,704.86,209.28Q706.36,208.77,707.88,208.26Q709.40,207.75,711.28,207.57Q713.16,207.40,714.75,206.62Q716.35,205.84,718.35,205.11Q720.36,204.38,722.11,203.48Q723.85,202.57,725.60,201.68Q727.34,200.78,728.74,200.46Q730.15,200.14,730.76,198.84Q731.36,197.55,733.66,195.94Q735.95,194.33,737.16,193.36Q738.37,192.39,740.13,191.13Q741.90,189.87,743.23,188.68Q744.57,187.49,746.06,186.60Q747.56,185.71,747.81,184.31Q748.06,182.90,749.08,181.39Q750.11,179.88,751.57,177.94Q753.03,176.00,754.06,174.55Q755.09,173.09,755.91,171.44Q756.73,169.78,757.87,167.99Q759.00,166.20,760.03,164.70Q761.05,163.20,762.08,161.18Q763.11,159.17,763.54,157.21Q763.98,155.25,764.42,152.86Q764.86,150.47,764.68,148.91Q764.51,147.35,764.47,145.84Q764.44,144.34,764.41,142.84Q764.38,141.34,764.38,139.87Q764.39,138.41,764.36,136.88Q764.33,135.34,762.56,134.00Q760.78,132.65,759.18,132.11Q757.57,131.57,754.96,130.56Q752.34,129.55,750.14,127.88Q747.95,126.21,745.61,125.29Q743.27,124.38,742.13,123.13Q741.00,121.88,739.09,121.24Q737.18,120.59,735.38,118.64Q733.57,116.68,732.11,115.41Q730.65,114.13,729.19,113.11Q727.73,112.09,728.11,107.62Q728.48,103.15,730.38,102.87Q732.27,102.58,735.19,102.04Q738.10,101.49,739.88,100.81Q741.65,100.13,743.75,99.75Q745.86,99.37,747.55,99.30Q749.25,99.23,750.75,98.66Q752.25,98.09,754.17,97.82Q756.09,97.55,757.71,97.49Q759.34,97.43,761.42,96.87Q763.50,96.31,765.51,95.74Q767.52,95.16,769.15,95.07Q770.78,94.97,771.46,94.51Q772.15,94.04,772.53,94.08Q772.92,94.13,773.28,94.27Q773.64,94.40,773.96,94.62Q774.28,94.84,774.54,95.13Q774.80,95.42,774.98,95.76Q775.16,96.10,775.25,96.48Q775.35,96.86,775.35,97.24Q775.35,97.63,775.26,98.01Q775.17,98.39,774.99,98.73Q774.81,99.07,774.55,99.37Q774.30,99.66,773.98,99.88Q773.66,100.10,773.30,100.24Q772.94,100.38,772.55,100.42Q772.17,100.47,770.15,100.39Q768.13,100.30,766.21,100.60Q764.28,100.90,762.09,102.16Q759.89,103.43,757.99,104.71Q756.08,105.99,754.66,107.09Q753.24,108.19,751.90,109.53Q750.56,110.87,749.93,112.38Q749.30,113.90,749.27,115.84Q749.25,117.78,748.74,119.32Q748.23,120.85,748.33,122.76Q748.43,124.66,747.96,126.35Q747.49,128.04,747.51,129.85Q747.53,131.67,747.56,133.16Q747.59,134.66,747.62,136.16Q747.65,137.66,747.59,138.15Q747.53,138.65,747.35,139.12Q747.17,139.59,746.89,140.00Q746.61,140.41,746.23,140.74Q745.86,141.07,745.41,141.31Q744.97,141.54,744.49,141.66Q744.00,141.78,743.50,141.78Q743.00,141.78,742.51,141.66Q742.03,141.54,741.59,141.31Q741.14,141.07,740.77,140.74Q740.39,140.41,740.11,140.00Q739.82,139.59,739.65,139.12Q739.47,138.65,739.41,138.15Q739.35,137.66,739.37,136.12Q739.39,134.58,739.92,132.73Q740.44,130.88,741.14,128.74Q741.83,126.60,741.75,124.60Q741.67,122.60,742.30,120.07Q742.93,117.54,743.28,115.91Q743.63,114.27,743.61,112.80Q743.58,111.33,743.58,109.87Q743.57,108.41,743.55,106.41Q743.53,104.41,743.49,102.88Q743.45,101.34,743.52,99.66Q743.59,97.97,744.23,96.56Q744.87,95.15,745.20,93.39Q745.53,91.62,745.66,89.18Q745.78,86.74,745.85,84.25Q745.92,81.75,745.95,79.58Q745.98,77.41,746.34,76.52Q746.70,75.64,746.75,75.21Q746.81,74.79,746.96,74.39Q747.11,73.99,747.35,73.64Q747.59,73.29,747.91,73.01Q748.23,72.72,748.61,72.52Q748.99,72.33,749.40,72.22Q749.82,72.12,750.25,72.12Q750.67,72.12,751.09,72.22Q751.50,72.33,751.88,72.52Q752.26,72.72,752.58,73.01Q752.90,73.29,753.14,73.64Q753.38,73.99,753.53,74.39Q753.68,74.79,753.74,75.21Q753.79,75.64,753.99,77.14Q754.19,78.65,754.21,80.12Q754.24,81.59,754.24,83.46Q754.24,85.33,754.29,86.99Q754.34,88.65,754.37,90.62Q754.40,92.59,754.44,94.12Q754.48,95.66,754.52,97.16Q754.56,98.66,755.00,100.78Q755.45,102.90,756.41,104.21Q757.38,105.51,758.29,106.64Q759.21,107.78,760.46,108.71Q761.71,109.64,762.85,110.67Q763.99,111.69,766.29,112.85Q768.59,114.01,771.47,115.01Q774.34,116.01,776.64,117.48Q778.95,118.96,779.94,120.05Q780.93,121.14,782.49,121.90Q784.05,122.66,785.08,123.68Q786.10,124.70,787.91,126.13Q789.73,127.55,790.41,128.91Q791.09,130.27,792.15,131.07Q793.22,131.87,793.28,132.37Q793.35,132.86,793.29,133.35Q793.24,133.85,793.07,134.32Q792.90,134.78,792.62,135.20Q792.35,135.61,791.98,135.94Q791.61,136.28,791.17,136.51Q790.74,136.75,790.25,136.88Q789.77,137.00,789.28,137.01Q788.78,137.02,788.29,136.90Q787.81,136.79,787.37,136.56Q786.92,136.34,786.55,136.01Q786.17,135.69,785.88,135.28Q785.59,134.88,785.41,134.42Q785.23,133.95,786.28,135.49Q787.32,137.03,785.63,137.03Q783.94,137.03,781.86,136.99Q779.77,136.96,778.31,136.35Q776.86,135.73,775.31,135.87Q773.76,136.00,772.25,135.37Q770.73,134.73,768.59,133.83Q766.44,132.93,764.42,131.92Q762.40,130.91,760.52,129.74Q758.63,128.57,757.29,127.73Q755.96,126.89,754.65,125.98Q753.35,125.07,751.34,124.26Q749.33,123.45,747.86,122.50Q746.38,121.56,744.40,120.60Q742.42,119.64,740.41,118.66Q738.40,117.67,736.36,117.41Q734.33,117.14,732.84,117.04Q731.35,116.93,729.96,116.27Q728.57,115.61,726.92,115.30Q725.27,114.98,723.82,114.27Q722.38,113.55,720.91,113.27Q719.43,113.00,718.07,112.36Q716.71,111.72,715.09,111.84Q713.47,111.95,711.99,111.28Q710.50,110.60,709.28,109.85Q708.05,109.11,707.73,108.73Q707.41,108.35,707.19,107.91Q706.97,107.47,706.86,106.98Q706.75,106.50,706.76,106.00Q706.77,105.51,706.90,105.03Q707.02,104.55,707.26,104.11Q707.50,103.68,707.84,103.31Q708.17,102.95,708.59,102.67Q709.00,102.40,709.47,102.23Q709.94,102.07,710.43,102.02Q710.92,101.97,711.42,102.03Q711.91,102.10,712.37,102.29Q712.83,102.47,713.23,102.76Q713.63,103.05,715.40,102.43Q717.16,101.80,718.66,101.78Q720.16,101.76,721.66,101.74Q723.16,101.72,725.13,101.73Q727.09,101.74,729.99,102.70Q732.90,103.67,734.90,103.20Q736.90,102.73,738.90,102.74Q740.90,102.75,742.53,102.74Q744.15,102.73,745.62,102.74Q747.09,102.76,748.59,102.77Q750.09,102.79,751.62,102.77Q753.16,102.75,754.66,102.73Q756.16,102.71,757.66,102.70Q759.16,102.68,760.59,102.68Q762.02,102.68,764.05,102.21Q766.08,101.73,767.63,100.58Q769.17,99.43,770.69,98.68Q772.21,97.93,773.59,96.95Q774.97,95.98,776.91,94.49Q778.85,93.00,780.83,91.01Q782.81,89.02,784.87,87.48Q786.94,85.94,787.52,85.50Q788.09,85.06,788.61,84.99Q789.13,84.92,789.65,84.98Q790.17,85.04,790.66,85.23Q791.16,85.41,791.59,85.70Q792.02,86.00,792.38,86.39Q792.73,86.78,792.97,87.24Q793.22,87.70,793.35,88.21Q793.48,88.72,793.48,89.24Q793.49,89.77,793.36,90.28Q793.24,90.79,793.00,91.26Q792.76,91.72,792.42,92.12Q792.07,92.51,791.64,92.81Q791.21,93.12,790.72,93.30Q790.23,93.49,787.91,94.38Q785.59,95.26,783.85,96.34Q782.11,97.42,780.04,98.37Q777.97,99.31,775.02,100.50Q772.07,101.69,770.74,102.70Q769.41,103.70,767.60,104.73Q765.80,105.77,763.93,106.73Q762.06,107.69,760.50,108.71Q758.94,109.74,757.44,110.78Q755.94,111.82,754.71,113.27Q753.49,114.72,751.97,115.77Q750.45,116.81,749.26,118.21Q748.07,119.60,746.29,121.17Q744.50,122.75,744.01,124.44Q743.51,126.13,742.43,127.33Q741.35,128.53,740.77,130.78Q740.20,133.03,739.43,134.30Q738.65,135.57,737.55,136.62Q736.46,137.66,735.83,139.40Q735.20,141.13,734.75,142.54Q734.30,143.95,733.42,145.32Q732.53,146.68,731.81,148.51Q731.08,150.34,730.68,151.71Q730.27,153.08,730.14,153.68Q730.00,154.27,729.64,154.64Q729.28,155.02,728.84,155.29Q728.39,155.57,727.90,155.73Q727.41,155.89,726.89,155.93Q726.37,155.97,725.85,155.88Q725.34,155.80,724.86,155.59Q724.39,155.38,723.97,155.07Q723.56,154.75,723.23,154.35Q722.90,153.94,722.68,153.47Q722.46,153.00,722.36,152.49Q722.26,151.98,722.28,151.46Q722.31,150.94,722.46,150.44Q722.60,149.94,722.87,149.49Q723.13,149.04,724.84,148.09Q726.56,147.15,728.58,145.66Q730.60,144.18,732.93,143.52Q735.27,142.85,737.35,143.43Q739.43,144.01,739.43,144.01Q739.43,144.02,739.43,144.02Q739.43,144.03,738.33,146.88Q737.22,149.72,735.78,150.44Q734.34,151.15,732.17,152.71Q730.00,154.27,729.64,154.64Q729.28,155.02,728.84,155.29Q728.40,155.57,727.90,155.73Q727.41,155.89,726.89,155.93Q726.37,155.97,725.85,155.88Q725.34,155.80,724.86,155.59Q724.39,155.38,723.97,155.07Q723.56,154.75,723.23,154.35Q722.90,153.94,722.68,153.47Q722.46,153.00,722.36,152.49Q722.26,151.98,722.28,151.46Q722.31,150.94,722.46,150.44Q722.60,149.94,722.87,149.49Q723.13,149.04,723.26,148.36Q723.40,147.67,724.40,145.70Q725.40,143.73,726.39,141.88Q727.38,140.03,727.93,138.31Q728.48,136.60,729.93,134.54Q731.39,132.48,732.43,130.76Q733.46,129.04,734.03,127.29Q734.60,125.55,735.57,123.64Q736.53,121.73,737.18,120.46Q737.83,119.18,738.96,118.07Q740.10,116.95,741.24,115.09Q742.37,113.23,744.30,111.37Q746.23,109.50,748.11,108.11Q749.99,106.71,751.73,105.53Q753.48,104.36,754.93,103.49Q756.39,102.62,758.30,101.71Q760.22,100.81,762.32,99.22Q764.42,97.62,766.06,96.53Q767.70,95.43,769.22,94.88Q770.75,94.33,772.57,93.17Q774.39,92.01,776.29,90.95Q778.19,89.90,779.78,89.10Q781.36,88.30,783.27,87.46Q785.18,86.62,786.63,85.84Q788.09,85.06,788.61,84.99Q789.13,84.92,789.65,84.98Q790.17,85.04,790.66,85.23Q791.16,85.41,791.59,85.70Q792.02,86.00,792.37,86.39Q792.73,86.78,792.97,87.24Q793.22,87.70,793.35,88.21Q793.48,88.72,793.48,89.24Q793.49,89.77,793.36,90.28Q793.24,90.79,793.00,91.26Q792.76,91.72,792.42,92.12Q792.07,92.51,791.64,92.81Q791.21,93.11,790.72,93.30Q790.23,93.49,790.37,93.10Q790.50,92.70,789.12,94.20Q787.75,95.69,786.45,97.07Q785.16,98.44,783.65,99.82Q782.13,101.20,780.90,101.96Q779.67,102.71,778.28,103.55Q776.88,104.38,775.64,105.15Q774.41,105.92,772.80,106.47Q771.18,107.03,769.81,107.92Q768.44,108.81,767.00,109.51Q765.56,110.21,763.36,110.77Q761.16,111.34,759.66,111.32Q758.16,111.31,756.66,111.29Q755.16,111.28,753.66,111.26Q752.15,111.24,750.52,111.22Q748.89,111.21,747.39,111.22Q745.90,111.24,744.00,111.24Q742.09,111.25,740.09,111.26Q738.09,111.27,736.62,111.29Q735.14,111.31,733.30,111.25Q731.45,111.19,729.27,110.72Q727.09,110.26,725.63,110.27Q724.16,110.29,722.66,110.27Q721.16,110.25,719.66,110.23Q718.16,110.21,716.66,110.19Q715.16,110.16,713.72,110.15Q712.28,110.13,710.17,109.62Q708.05,109.11,707.73,108.73Q707.41,108.35,707.19,107.91Q706.97,107.47,706.86,106.98Q706.75,106.50,706.76,106.00Q706.77,105.51,706.90,105.03Q707.02,104.55,707.26,104.11Q707.50,103.68,707.84,103.31Q708.17,102.95,708.59,102.67Q709.00,102.40,709.47,102.23Q709.94,102.07,710.43,102.02Q710.92,101.97,711.42,102.03Q711.91,102.10,712.37,102.29Q712.83,102.47,713.23,102.76Q713.63,103.05,714.00,103.55Q714.37,104.05,715.96,104.02Q717.54,103.98,718.96,104.50Q720.38,105.01,722.08,105.03Q723.79,105.05,725.69,106.05Q727.59,107.04,729.11,107.54Q730.64,108.03,732.58,108.55Q734.53,109.06,736.39,109.44Q738.25,109.82,740.57,110.42Q742.88,111.02,744.88,112.04Q746.87,113.06,748.91,114.10Q750.96,115.14,752.90,116.64Q754.83,118.14,756.79,119.12Q758.75,120.10,760.84,121.16Q762.93,122.22,764.86,123.18Q766.79,124.14,768.29,124.88Q769.79,125.62,771.37,126.17Q772.94,126.71,774.99,127.32Q777.04,127.92,778.73,128.48Q780.43,129.04,782.17,129.01Q783.92,128.97,785.49,128.95Q787.07,128.93,790.14,130.40Q793.21,131.87,793.28,132.37Q793.35,132.86,793.29,133.35Q793.24,133.85,793.07,134.31Q792.90,134.78,792.62,135.20Q792.35,135.61,791.98,135.94Q791.61,136.28,791.17,136.51Q790.74,136.75,790.26,136.88Q789.77,137.00,789.28,137.01Q788.78,137.02,788.30,136.90Q787.81,136.79,787.37,136.57Q786.92,136.34,786.55,136.01Q786.17,135.69,785.88,135.28Q785.59,134.88,785.41,134.42Q785.23,133.95,785.20,134.15Q785.17,134.34,783.67,133.35Q782.17,132.36,780.22,130.52Q778.27,128.69,777.17,127.77Q776.07,126.85,775.08,125.82Q774.09,124.79,772.71,124.13Q771.33,123.47,769.78,123.19Q768.23,122.92,766.71,122.17Q765.18,121.43,763.54,120.84Q761.91,120.26,760.00,118.22Q758.10,116.18,756.14,115.39Q754.18,114.60,753.07,113.43Q751.95,112.27,751.39,110.52Q750.82,108.77,749.34,106.81Q747.87,104.85,747.23,103.44Q746.58,102.03,746.51,100.34Q746.44,98.66,746.48,97.16Q746.52,95.66,746.56,94.12Q746.60,92.59,746.63,90.62Q746.66,88.65,746.71,86.99Q746.76,85.33,746.76,83.46Q746.76,81.59,746.79,80.13Q746.81,78.67,746.76,77.16Q746.70,75.64,746.75,75.21Q746.81,74.79,746.96,74.39Q747.11,73.99,747.35,73.64Q747.59,73.29,747.91,73.01Q748.23,72.72,748.61,72.52Q748.99,72.33,749.40,72.22Q749.82,72.12,750.24,72.12Q750.67,72.12,751.09,72.22Q751.50,72.33,751.88,72.52Q752.26,72.72,752.58,73.01Q752.90,73.29,753.14,73.64Q753.38,73.99,753.53,74.39Q753.68,74.79,753.74,75.21Q753.79,75.64,753.39,77.30Q752.99,78.96,753.05,81.46Q753.10,83.96,753.17,86.51Q753.23,89.07,753.28,90.64Q753.33,92.21,752.88,94.67Q752.44,97.13,751.99,99.23Q751.55,101.34,751.51,102.88Q751.47,104.41,751.45,106.41Q751.43,108.41,751.42,109.88Q751.41,111.36,751.32,113.21Q751.24,115.06,750.73,117.07Q750.23,119.07,749.77,120.87Q749.32,122.66,749.27,124.42Q749.22,126.18,748.74,128.22Q748.26,130.26,747.93,132.46Q747.61,134.66,747.63,136.16Q747.65,137.66,747.59,138.15Q747.53,138.65,747.35,139.12Q747.18,139.59,746.89,140.00Q746.61,140.41,746.23,140.74Q745.86,141.07,745.41,141.31Q744.97,141.54,744.49,141.66Q744.00,141.78,743.50,141.78Q743.00,141.78,742.51,141.66Q742.03,141.54,741.59,141.31Q741.14,141.07,740.77,140.74Q740.39,140.41,740.11,140.00Q739.83,139.59,739.65,139.12Q739.47,138.65,739.41,138.15Q739.35,137.66,739.38,136.16Q739.41,134.66,739.44,133.15Q739.48,131.64,739.56,129.81Q739.64,127.99,740.11,126.32Q740.57,124.65,740.63,123.06Q740.69,121.46,741.22,119.50Q741.75,117.53,741.85,115.77Q741.94,114.01,742.85,112.45Q743.75,110.90,744.03,109.10Q744.31,107.29,745.85,105.72Q747.38,104.15,748.58,103.07Q749.77,102.00,751.90,100.95Q754.03,99.91,755.74,98.60Q757.46,97.30,760.02,95.95Q762.59,94.59,765.38,94.15Q768.17,93.71,770.16,93.87Q772.15,94.04,772.53,94.08Q772.92,94.13,773.28,94.27Q773.64,94.40,773.96,94.62Q774.28,94.84,774.54,95.13Q774.80,95.42,774.98,95.76Q775.16,96.10,775.25,96.48Q775.35,96.86,775.35,97.24Q775.35,97.63,775.26,98.01Q775.17,98.39,774.99,98.73Q774.81,99.07,774.55,99.36Q774.30,99.66,773.98,99.88Q773.66,100.10,773.30,100.24Q772.94,100.38,772.55,100.42Q772.17,100.47,771.17,100.78Q770.17,101.08,768.50,101.01Q766.83,100.93,764.70,101.37Q762.57,101.81,761.07,102.23Q759.57,102.64,756.87,102.80Q754.17,102.96,751.90,103.91Q749.63,104.87,746.97,105.16Q744.30,105.44,740.67,107.14Q737.04,108.84,735.63,109.45Q734.22,110.07,732.44,110.74Q730.66,111.41,732.56,109.32Q734.47,107.23,736.53,108.71Q738.60,110.20,740.05,111.65Q741.51,113.10,742.75,114.08Q743.99,115.05,745.81,116.53Q747.63,118.01,749.45,118.65Q751.27,119.30,752.35,120.38Q753.44,121.46,754.94,122.25Q756.45,123.04,758.13,123.60Q759.82,124.16,761.29,124.66Q762.77,125.17,764.31,125.89Q765.85,126.61,767.59,127.24Q769.32,127.86,770.60,129.33Q771.89,130.79,772.28,133.07Q772.67,135.34,772.64,136.88Q772.61,138.41,772.61,140.37Q772.60,142.34,772.57,143.84Q772.54,145.34,772.50,146.90Q772.46,148.45,772.39,150.26Q772.32,152.06,771.83,154.04Q771.35,156.02,770.76,158.63Q770.18,161.23,769.08,163.43Q767.99,165.64,766.99,167.19Q765.98,168.73,765.06,170.08Q764.15,171.42,763.14,173.43Q762.13,175.44,761.28,177.04Q760.44,178.63,759.32,180.07Q758.20,181.51,756.92,183.51Q755.65,185.50,754.61,187.52Q753.58,189.54,752.23,190.62Q750.89,191.71,749.67,193.10Q748.45,194.49,746.71,195.87Q744.98,197.25,743.83,198.34Q742.68,199.43,740.89,200.07Q739.09,200.71,737.62,202.34Q736.16,203.96,734.97,204.98Q733.78,206.00,732.12,206.88Q730.46,207.77,728.35,208.59Q726.24,209.42,723.84,210.56Q721.44,211.69,719.11,212.63Q716.77,213.56,714.57,214.18Q712.37,214.80,710.89,215.29Q709.41,215.78,706.70,216.65Q703.99,217.51,702.59,218.10Q701.19,218.69,699.17,218.72Q697.15,218.76,695.58,219.26Q694.01,219.75,692.57,219.73Q691.13,219.70,689.55,220.20Q687.97,220.69,686.43,220.68Q684.89,220.67,683.20,220.75Q681.52,220.82,678.67,221.34Q675.82,221.85,673.86,221.87Q671.90,221.90,669.90,221.87Q667.89,221.84,666.43,221.81Q664.96,221.79,663.23,221.51Q661.49,221.23,659.92,220.92Q658.35,220.60,656.15,219.52Q653.96,218.43,652.32,217.67Q650.69,216.90,649.53,215.78Q648.37,214.66,647.35,213.57Q646.33,212.48,645.36,211.17Q644.39,209.87,643.31,208.28Q642.22,206.69,640.96,204.50Q639.69,202.31,638.31,200.68Q636.94,199.05,636.01,197.81Q635.09,196.58,634.40,194.70Q633.70,192.82,632.61,190.25Q631.53,187.69,631.54,185.10Q631.56,182.51,630.53,180.61Q629.50,178.71,629.63,178.24Q629.77,177.77,630.01,177.35Q630.25,176.93,630.59,176.58Q630.93,176.23,631.34,175.97Q631.75,175.71,632.21,175.56Q632.68,175.40,633.16,175.36Q633.65,175.32,634.13,175.40Q634.61,175.48,635.06,175.67Q635.50,175.86,635.89,176.15Q636.28,176.45,636.59,176.82Q636.90,177.20,637.11,177.64Q637.31,178.08,637.41,178.56Q637.51,179.04,637.49,179.52Q637.47,180.01,636.97,181.84Q636.48,183.68,635.98,185.66Q635.48,187.64,634.84,189.25Q634.20,190.85,632.95,192.75Q631.70,194.66,630.09,196.50Q628.47,198.35,627.97,199.85Q627.46,201.34,626.79,202.69Q626.12,204.05,625.07,205.08Q624.02,206.12,622.95,207.12Q621.89,208.11,620.66,208.91Q619.43,209.71,617.93,210.81Q616.44,211.90,614.82,212.44Q613.21,212.98,611.65,212.98Q610.09,212.99,608.63,212.85Q607.17,212.72,605.15,211.36Q603.13,210.00,602.39,208.54Q601.66,207.09,600.59,205.00Q599.52,202.90,598.99,201.30Q598.46,199.71,598.45,198.15Q598.43,196.59,598.44,194.62Q598.45,192.65,598.49,191.03Q598.52,189.40,598.54,187.53Q598.56,185.65,598.62,183.97Q598.67,182.28,599.25,180.02Q599.84,177.76,600.20,175.63Q600.56,173.50,600.63,171.66Q600.71,169.83,601.44,167.78Q602.17,165.73,603.03,163.91Q603.89,162.10,605.00,160.95Q606.12,159.80,607.89,158.67Q609.65,157.54,611.63,156.33Q613.61,155.11,615.20,154.59Q616.80,154.06,618.35,154.06Q619.91,154.05,621.41,154.06Q622.91,154.06,624.38,154.07Q625.85,154.08,627.51,154.13Q629.17,154.17,631.13,154.18Q633.09,154.19,634.82,155.06Q636.55,155.93,637.39,157.64Q638.24,159.34,638.17,160.84Q638.11,162.34,638.04,163.88Q637.97,165.42,637.92,166.96Q637.88,168.49,637.88,170.58Q637.87,172.66,637.79,174.42Q637.71,176.18,637.21,178.62Q636.72,181.05,636.49,182.48Q636.25,183.90,635.71,185.46Q635.17,187.02,634.21,189.52Q633.26,192.02,632.46,194.26Q631.66,196.49,631.13,198.59Q630.59,200.68,629.25,202.62Q627.91,204.57,627.13,205.86Q626.36,207.15,625.55,208.94Q624.74,210.73,623.74,211.79Q622.73,212.84,621.19,214.86Q619.65,216.88,618.47,218.01Q617.28,219.14,615.40,221.17Q613.51,223.19,612.24,224.52Q610.98,225.85,609.47,227.03Q607.95,228.21,605.88,228.45Q603.82,228.68,601.82,228.69Q599.82,228.70,597.82,228.70Q595.82,228.71,593.82,228.72Q591.82,228.74,589.86,228.74Q587.90,228.75,585.90,228.69Q583.91,228.63,581.86,227.94Q579.80,227.25,578.44,225.65Q577.08,224.06,575.96,222.30Q574.83,220.54,573.47,218.61Q572.10,216.69,571.63,215.16Q571.15,213.64,570.51,212.22Q569.87,210.80,569.09,208.42Q568.32,206.05,567.62,203.82Q566.93,201.59,566.43,199.58Q565.93,197.57,565.41,194.80Q564.89,192.03,564.38,190.39Q563.87,188.75,563.37,187.16Q562.88,185.58,562.38,184.03Q561.88,182.47,561.92,180.62Q561.95,178.78,563.06,180.19Q564.16,181.60,562.70,181.53Q561.24,181.46,559.43,181.84Q557.62,182.21,556.28,182.77Q554.94,183.34,552.68,183.93Q550.43,184.53,547.45,185.49Q544.48,186.45,542.81,187.84Q541.15,189.22,539.89,190.68Q538.62,192.15,538.08,193.71Q537.55,195.28,537.04,197.62Q536.53,199.95,536.00,201.60Q535.46,203.25,535.07,206.15Q534.67,209.04,534.70,210.53Q534.72,212.02,534.70,213.55Q534.69,215.08,534.43,216.55Q534.17,218.01,533.45,219.98Q532.72,221.95,532.34,224.30Q531.96,226.65,531.92,228.30Q531.88,229.94,531.85,232.46Q531.81,234.97,531.30,236.98Q530.79,239.00,529.76,241.22Q528.73,243.43,529.00,241.82Q529.28,240.20,529.37,240.59Q529.46,240.98,529.45,241.37Q529.44,241.77,529.34,242.15Q529.23,242.54,529.04,242.88Q528.85,243.23,528.58,243.52Q528.31,243.82,527.98,244.03Q527.65,244.25,527.27,244.38Q526.90,244.52,526.50,244.56Q526.11,244.60,525.71,244.54Q525.32,244.48,524.95,244.33Q524.59,244.19,524.26,243.95Q523.94,243.72,523.69,243.42Q523.43,243.11,523.25,242.76Q523.08,242.40,522.61,241.38Q522.15,240.37,521.67,237.75Q521.19,235.13,520.74,233.63Q520.30,232.14,519.85,230.58Q519.41,229.03,518.92,227.23Q518.44,225.43,518.00,223.44Q517.57,221.45,517.09,219.54Q516.62,217.63,516.19,215.84Q515.76,214.04,515.66,211.38Q515.56,208.72,515.02,207.09Q514.48,205.47,513.96,203.75Q513.43,202.04,513.00,200.42Q512.57,198.80,512.37,195.92Q512.17,193.03,511.67,191.68Q511.18,190.33,510.60,187.72Q510.02,185.11,508.85,182.73Q507.68,180.35,506.29,181.80Q504.90,183.26,503.72,184.87Q502.55,186.47,502.40,188.23Q502.26,189.99,501.44,191.60Q500.62,193.22,499.99,195.52Q499.35,197.82,498.93,200.07Q498.51,202.32,497.62,204.30Q496.73,206.27,496.26,208.99Q495.79,211.72,495.71,213.91Q495.63,216.11,495.43,217.54Q495.23,218.97,494.82,220.39Q494.41,221.81,494.07,223.52Q493.72,225.23,493.62,227.03Q493.52,228.83,493.23,231.10Q492.95,233.37,492.17,235.25Q491.39,237.14,491.62,237.52Q491.84,237.91,491.97,238.34Q492.09,238.78,492.11,239.22Q492.13,239.67,492.04,240.11Q491.96,240.55,491.76,240.96Q491.57,241.37,491.29,241.71Q491.01,242.06,490.65,242.33Q490.29,242.60,489.88,242.78Q489.46,242.96,489.02,243.03Q488.58,243.10,488.13,243.07Q487.68,243.03,487.26,242.89Q486.83,242.75,486.45,242.51Q486.07,242.27,485.76,241.95Q485.44,241.63,484.63,239.66Q483.81,237.70,483.34,234.69Q482.87,231.69,482.35,230.25Q481.83,228.82,481.43,227.35Q481.03,225.88,480.96,223.86Q480.90,221.84,480.44,220.22Q479.98,218.61,479.57,216.29Q479.15,213.97,478.15,212.28Q477.14,210.59,476.64,208.58Q476.14,206.58,475.13,204.21Q474.12,201.85,473.17,199.98Q472.22,198.10,471.24,195.62Q470.25,193.14,471.75,192.93Q473.24,192.72,472.72,195.13Q472.20,197.53,472.20,199.09Q472.19,200.64,472.12,202.33Q472.05,204.03,471.50,205.62Q470.95,207.22,470.47,209.21Q470.00,211.19,469.79,212.67Q469.58,214.15,468.30,216.74Q467.02,219.32,466.27,221.33Q465.53,223.33,464.72,225.02Q463.90,226.72,462.82,227.84Q461.73,228.95,461.32,230.42Q460.91,231.88,459.94,233.35Q458.97,234.83,457.75,236.07Q456.53,237.31,454.66,239.01Q452.79,240.70,451.47,241.62Q450.15,242.53,448.68,243.15Q447.21,243.76,444.75,243.68Q442.30,243.59,440.49,242.34Q438.69,241.09,438.09,239.01Q437.48,236.92,436.57,235.01Q435.66,233.09,434.49,230.66Q433.33,228.24,432.78,225.82Q432.23,223.40,432.32,221.35Q432.42,219.31,432.47,217.28Q432.53,215.25,432.56,212.77Q432.59,210.29,432.66,208.13Q432.73,205.97,432.73,204.47Q432.72,202.97,432.72,201.46Q432.71,199.95,432.71,198.41Q432.70,196.87,432.70,195.22Q432.71,193.58,432.76,191.42Q432.81,189.26,433.06,186.81Q433.32,184.37,433.36,183.98Q433.41,183.60,433.54,183.24Q433.68,182.89,433.90,182.57Q434.12,182.25,434.40,182.00Q434.69,181.74,435.03,181.57Q435.37,181.39,435.74,181.30Q436.12,181.20,436.50,181.20Q436.88,181.20,437.26,181.30Q437.63,181.39,437.97,181.57Q438.31,181.74,438.60,182.00Q438.88,182.25,439.10,182.57Q439.32,182.89,439.46,183.24Q439.59,183.60,439.64,183.98Q439.68,184.37,439.61,185.53Q439.54,186.70,439.48,188.78Q439.42,190.86,439.27,193.35Q439.12,195.83,438.50,197.90Q437.88,199.97,437.72,202.58Q437.56,205.19,437.26,206.92Q436.95,208.66,435.55,210.94Q434.14,213.22,433.83,214.67Q433.51,216.12,432.87,218.29Q432.22,220.46,431.96,222.60Q431.69,224.74,430.84,226.41Q430.00,228.08,428.90,229.29Q427.81,230.50,427.23,232.28Q426.66,234.05,425.27,235.68Q423.88,237.31,422.71,239.60Q421.54,241.90,420.59,243.67Q419.64,245.44,417.98,247.64Q416.31,249.84,414.48,251.84Q412.65,253.85,410.33,256.86Q408.02,259.87,406.34,261.51Q404.65,263.15,402.77,263.67Q400.89,264.19,399.19,264.11Q397.50,264.03,394.68,263.26Q391.87,262.49,391.01,261.14Q390.15,259.78,389.00,258.46Q387.85,257.13,386.59,255.73Q385.34,254.33,384.26,252.86Q383.18,251.39,382.41,249.68Q381.64,247.98,380.13,245.59Q378.61,243.20,377.67,241.84Q376.74,240.48,376.17,238.93Q375.60,237.38,374.27,235.35Q372.93,233.33,372.42,231.70Q371.91,230.07,370.96,228.03Q370.00,225.99,369.05,223.90Q368.11,221.81,367.16,219.56Q366.21,217.30,365.23,214.50Q364.25,211.71,363.71,209.48Q363.17,207.26,362.18,204.39Q361.20,201.52,360.62,199.09Q360.04,196.66,359.20,194.16Q358.36,191.66,358.24,189.63Q358.11,187.60,357.22,185.12Q356.32,182.63,355.90,180.32Q355.47,178.01,354.98,174.92Q354.49,171.83,354.28,168.69Q354.06,165.55,353.66,163.07Q353.26,160.59,353.08,157.07Q352.90,153.55,352.90,151.43Q352.90,149.31,352.81,146.83Q352.71,144.36,352.60,141.97Q352.50,139.58,352.54,136.66Q352.58,133.75,352.60,131.92Q352.63,130.09,352.35,127.30Q352.08,124.51,352.00,121.10Q351.92,117.69,351.86,115.78Q351.80,113.87,351.82,112.22Q351.85,110.58,352.46,107.30Q353.07,104.02,353.77,100.87Q354.48,97.72,354.67,95.86Q354.86,94.00,355.45,92.40Q356.04,90.80,356.84,89.59Q357.64,88.38,359.62,87.27Q361.60,86.16,363.62,87.21Q365.64,88.27,365.98,89.73Q366.31,91.20,366.33,93.98Q366.35,96.75,366.31,99.23Q366.26,101.71,366.17,103.89Q366.09,106.07,366.09,107.64Q366.09,109.21,366.08,112.10Q366.07,114.98,366.01,117.66Q365.94,120.34,366.01,122.30Q366.07,124.27,366.13,126.11Q366.18,127.96,366.12,130.49Q366.06,133.03,366.04,134.53Q366.03,136.03,366.01,137.53Q365.99,139.02,365.97,140.52Q365.94,142.02,365.72,144.88Q365.49,147.73,365.17,149.39Q364.86,151.06,364.83,152.58Q364.81,154.11,364.79,155.72Q364.77,157.33,364.81,159.29Q364.85,161.24,364.77,164.28Q364.68,167.32,364.53,169.16Q364.38,171.00,363.67,174.63Q362.95,178.26,362.83,180.04Q362.70,181.81,362.39,183.54Q362.09,185.26,361.97,187.04Q361.85,188.83,361.56,190.50Q361.27,192.17,360.77,194.72Q360.28,197.26,360.22,200.29Q360.17,203.31,359.89,204.86Q359.61,206.41,359.12,208.25Q358.63,210.09,358.10,212.69Q357.58,215.30,356.62,217.29Q355.66,219.28,355.68,221.74Q355.69,224.20,354.44,227.17Q353.18,230.14,351.65,233.13Q350.12,236.11,349.03,237.19Q347.94,238.28,346.54,239.47Q345.13,240.66,342.94,241.69Q340.76,242.71,338.39,242.80Q336.02,242.88,334.06,242.92Q332.09,242.95,330.62,242.81Q329.16,242.67,327.87,241.97Q326.58,241.26,325.64,238.94Q324.70,236.62,324.19,233.98Q323.67,231.34,323.68,228.94Q323.69,226.55,323.68,224.78Q323.67,223.01,323.53,220.29Q323.39,217.58,323.37,215.99Q323.35,214.40,323.34,212.38Q323.33,210.36,323.39,209.86Q323.45,209.36,323.63,208.89Q323.81,208.42,324.10,208.01Q324.38,207.60,324.76,207.26Q325.13,206.93,325.58,206.70Q326.02,206.46,326.51,206.34Q327.00,206.22,327.50,206.22Q328.00,206.22,328.49,206.34Q328.98,206.46,329.42,206.70Q329.87,206.93,330.24,207.26Q330.62,207.60,330.90,208.01Q331.19,208.42,331.37,208.89Q331.55,209.36,331.61,209.86Q331.67,210.36,331.65,211.48Q331.64,212.60,331.63,214.48Q331.63,216.36,331.53,218.23Q331.43,220.10,330.95,221.75Q330.47,223.41,330.35,224.83Q330.23,226.25,329.21,227.78Q328.19,229.31,327.10,232.02Q326.01,234.72,325.04,236.16Q324.08,237.60,322.38,239.40Q320.69,241.21,318.72,242.56Q316.76,243.91,314.50,244.45Q312.25,245.00,312.86,243.20Q313.48,241.40,313.42,241.87Q313.36,242.35,313.19,242.80Q313.02,243.25,312.75,243.64Q312.48,244.04,312.12,244.35Q311.76,244.67,311.34,244.90Q310.91,245.12,310.45,245.23Q309.98,245.35,309.50,245.35Q309.02,245.35,308.55,245.23Q308.09,245.12,307.66,244.90Q307.24,244.67,306.88,244.35Q306.52,244.04,306.25,243.64Q305.98,243.25,305.81,242.80Q305.64,242.35,305.58,241.87Q305.52,241.40,305.53,239.99Q305.53,238.58,305.53,236.99Q305.52,235.40,305.54,233.49Q305.57,231.59,305.57,230.09Q305.58,228.59,305.59,227.08Q305.59,225.57,305.60,223.97Q305.60,222.36,305.65,220.67Q305.70,218.97,306.25,217.52Q306.79,216.06,307.14,214.33Q307.49,212.60,308.69,210.63Q309.90,208.66,310.59,207.40Q311.28,206.14,312.84,205.27Q314.41,204.39,316.57,204.48Q318.73,204.56,320.62,205.81Q322.50,207.05,323.55,208.47Q324.59,209.88,325.77,212.23Q326.94,214.57,327.34,216.26Q327.75,217.94,327.41,219.56Q327.07,221.18,326.17,222.50Q325.27,223.81,323.02,224.94Q320.76,226.08,319.19,226.54Q317.61,227.00,316.10,227.43Q314.60,227.85,312.97,228.36Q311.35,228.86,308.60,229.79Q305.86,230.73,304.03,231.15Q302.21,231.58,300.95,232.62Q299.69,233.67,297.99,234.65Q296.28,235.64,294.82,236.14Q293.36,236.64,292.01,237.17Q290.66,237.70,289.00,238.75Q287.34,239.80,285.52,240.78Q283.70,241.75,282.36,242.29Q281.02,242.83,279.48,243.36Q277.94,243.89,275.17,245.45Q272.40,247.00,269.71,247.93Q267.01,248.86,264.92,249.89Q262.84,250.92,261.19,251.99Q259.55,253.05,257.26,254.06Q254.97,255.06,253.41,256.12Q251.85,257.17,248.66,258.25Q245.48,259.33,242.83,260.35Q240.17,261.37,237.97,262.36Q235.78,263.35,234.00,264.43Q232.22,265.52,230.77,266.08Q229.32,266.64,227.33,267.71Q225.35,268.78,223.54,269.36Q221.73,269.94,219.67,270.51Q217.60,271.08,214.75,271.63Q211.90,272.18,209.90,272.19Q207.89,272.19,206.39,272.18Q204.89,272.18,203.08,271.26Q201.27,270.35,200.39,267.60Q199.52,264.84,200.61,262.72Q201.69,260.60,202.78,258.54Q203.87,256.47,205.44,254.33Q207.01,252.19,208.25,250.98Q209.48,249.77,211.61,248.74Q213.73,247.71,214.83,246.66Q215.94,245.62,218.39,244.99Q220.84,244.35,222.34,244.42Q223.85,244.49,225.49,244.58Q227.13,244.66,228.79,244.76Q230.45,244.86,232.49,245.37Q234.54,245.87,236.67,246.45Q238.80,247.04,240.70,248.05Q242.60,249.06,244.80,249.69Q247.00,250.33,248.53,251.64Q250.05,252.95,250.89,254.16Q251.73,255.37,252.97,256.40Q254.21,257.44,255.12,258.72Q256.02,259.99,257.12,262.07Q258.23,264.14,259.15,265.86Q260.07,267.57,261.05,269.68Q262.03,271.79,262.96,273.41Q263.89,275.02,264.44,277.84Q264.99,280.66,266.42,283.80Q267.85,286.94,268.35,289.09Q268.85,291.24,268.94,292.85Q269.03,294.46,269.99,295.82Q270.94,297.19,271.33,298.81Q271.71,300.43,271.84,303.55Q271.96,306.67,272.36,308.60Q272.75,310.52,272.88,312.77Q273.00,315.02,272.98,316.52Q272.96,318.01,272.89,320.88Q272.83,323.74,273.05,327.52Q273.26,331.29,273.33,333.18Q273.41,335.08,273.40,336.65Q273.39,338.23,272.94,341.22Q272.49,344.22,272.38,346.00Q272.26,347.77,271.69,349.57Q271.12,351.36,271.23,351.73Q271.33,352.10,271.34,352.49Q271.35,352.87,271.27,353.25Q271.19,353.62,271.03,353.97Q270.86,354.32,270.61,354.61Q270.37,354.91,270.06,355.13Q269.75,355.36,269.39,355.51Q269.04,355.66,268.66,355.72Q268.28,355.77,267.90,355.74Q267.51,355.70,267.15,355.58Q266.79,355.45,266.46,355.25Q266.14,355.04,265.88,354.76Q265.61,354.48,265.43,354.14Q265.24,353.81,264.81,353.21Q264.38,352.61,263.91,351.15Q263.45,349.70,263.48,347.71Q263.50,345.73,263.04,344.01Q262.58,342.29,262.07,340.03Q261.55,337.77,261.17,334.97Q260.78,332.17,260.77,330.45Q260.76,328.73,260.27,327.16Q259.79,325.59,259.39,323.81Q258.99,322.02,259.04,319.21Q259.09,316.40,259.13,314.77Q259.17,313.13,258.75,311.07Q258.34,309.00,258.36,307.52Q258.38,306.05,258.35,304.60Q258.32,303.16,257.99,299.96Q257.66,296.75,257.57,294.93Q257.48,293.11,257.02,291.19Q256.56,289.28,256.21,287.47Q255.85,285.66,255.77,283.68Q255.70,281.70,255.26,279.31Q254.83,276.92,254.88,275.31Q254.92,273.70,254.85,271.79Q254.78,269.88,254.31,267.74Q253.85,265.61,253.39,263.16Q252.94,260.70,252.88,258.80Q252.83,256.89,252.45,254.76Q252.06,252.64,251.99,250.62Q251.91,248.60,251.40,246.20Q250.88,243.81,250.49,241.59Q250.10,239.38,249.96,237.02Q249.82,234.66,249.38,232.27Q248.94,229.89,248.93,228.20Q248.92,226.51,248.47,223.95Q248.02,221.39,247.97,219.04Q247.92,216.68,247.93,214.76Q247.95,212.84,247.92,211.07Q247.89,209.31,247.31,206.51Q246.73,203.71,246.63,201.81Q246.54,199.92,246.03,197.76Q245.53,195.60,244.99,193.07Q244.46,190.53,244.27,188.46Q244.09,186.39,243.60,184.56Q243.10,182.74,242.54,180.27Q241.97,177.79,241.84,176.04Q241.70,174.29,241.28,171.03Q240.87,167.76,240.83,164.69Q240.80,161.62,240.66,159.61Q240.51,157.59,240.26,155.70Q240.00,153.81,239.51,151.97Q239.03,150.14,238.94,148.19Q238.86,146.24,238.38,144.57Q237.89,142.90,237.75,140.79Q237.60,138.68,237.08,136.13Q236.56,133.57,236.55,131.97Q236.54,130.36,236.56,128.65Q236.58,126.94,236.06,124.88Q235.55,122.81,235.00,121.35Q234.45,119.88,234.25,118.46Q234.05,117.05,232.86,115.60Q231.66,114.15,232.91,115.06Q234.16,115.97,232.62,115.93Q231.09,115.89,229.59,115.87Q228.09,115.86,226.58,115.85Q225.08,115.84,223.48,115.83Q221.89,115.83,220.36,115.27Q218.82,114.71,216.83,115.51Q214.84,116.30,213.84,118.16Q212.84,120.01,212.29,121.81Q211.74,123.61,211.68,125.11Q211.62,126.61,211.54,128.11Q211.47,129.61,211.39,131.05Q211.31,132.48,211.22,134.51Q211.13,136.53,209.82,138.76Q208.51,141.00,208.49,141.00Z" fill="#000" />
  <path d="M324.50,163.99Q324.50,163.99,327.32,162.44Q330.15,160.90,334.39,160.64Q338.63,160.39,343.35,159.28Q348.07,158.17,351.93,157.54Q355.78,156.91,359.76,156.40Q363.73,155.89,367.72,155.41Q371.71,154.92,374.96,154.44Q378.21,153.96,380.47,153.03Q382.73,152.11,385.18,151.52Q387.64,150.94,389.65,149.66Q391.66,148.38,393.36,147.82Q395.05,147.27,397.70,146.49Q400.36,145.71,401.90,145.64Q403.45,145.58,404.96,145.55Q406.47,145.52,408.33,145.59Q410.19,145.65,413.76,146.32Q417.32,146.99,417.32,147.00Q417.32,147.00,417.32,147.01Q417.32,147.01,415.30,148.15Q413.27,149.28,411.76,149.81Q410.25,150.35,408.37,150.42Q406.49,150.49,405.02,150.47Q403.55,150.46,401.17,150.43Q398.78,150.40,396.51,151.20Q394.23,152.00,392.62,151.76Q391.00,151.53,389.44,152.34Q387.87,153.14,385.49,153.11Q383.10,153.09,380.72,153.91Q378.34,154.73,375.08,155.25Q371.82,155.78,367.84,156.32Q363.86,156.85,359.92,157.43Q355.98,158.02,352.19,158.74Q348.39,159.46,343.57,160.73Q338.74,162.00,334.76,162.32Q330.77,162.63,327.64,163.32Q324.50,164.01,324.50,163.99Z" fill="#000" />
  <path d="M430.51,101.00Q430.51,101.00,431.94,102.49Q433.38,103.98,433.58,105.81Q433.78,107.65,435.47,106.99Q437.15,106.34,439.03,106.29Q440.90,106.25,441.28,104.79Q441.67,103.34,442.16,101.84Q442.65,100.34,444.07,98.71Q445.49,97.09,445.49,97.09Q445.50,97.09,445.50,97.09Q445.51,97.09,446.93,98.71Q448.35,100.34,448.84,101.84Q449.33,103.34,449.40,104.87Q449.46,106.40,449.30,107.92Q449.14,109.44,447.71,110.93Q446.28,112.42,444.19,113.10Q442.09,113.79,440.12,113.75Q438.16,113.70,436.62,113.64Q435.08,113.57,433.51,113.52Q431.94,113.47,430.30,112.65Q428.65,111.83,427.94,109.74Q427.22,107.65,427.42,105.81Q427.62,103.98,429.06,102.49Q430.49,101.00,430.51,101.00Z" fill="#000" />
  <path d="M209.51,118.00Q209.51,118.00,210.52,119.84Q211.53,121.67,211.60,123.17Q211.67,124.66,211.23,127.08Q210.78,129.49,210.28,130.91Q209.78,132.34,208.98,134.60Q208.19,136.85,208.19,138.76Q208.19,140.67,208.24,142.16Q208.30,143.66,208.32,145.13Q208.33,146.59,208.38,148.12Q208.43,149.66,208.44,151.12Q208.44,152.59,208.91,154.78Q209.38,156.97,210.24,159.24Q211.09,161.51,211.87,163.55Q212.65,165.60,213.04,167.51Q213.44,169.41,213.91,171.24Q214.39,173.07,215.40,175.40Q216.41,177.73,217.17,179.23Q217.93,180.72,218.61,182.68Q219.28,184.64,219.85,186.35Q220.41,188.06,221.43,189.94Q222.44,191.82,223.54,193.64Q224.64,195.47,225.61,196.96Q226.59,198.46,227.57,199.97Q228.56,201.48,229.40,203.10Q230.24,204.72,230.90,206.70Q231.55,208.68,232.48,210.84Q233.41,213.00,234.42,214.52Q235.43,216.03,236.61,217.77Q237.79,219.50,238.55,220.79Q239.31,222.08,240.36,224.35Q241.41,226.63,242.30,227.77Q243.18,228.92,244.33,230.71Q245.48,232.50,246.51,233.49Q247.54,234.48,248.76,236.57Q249.98,238.66,249.23,241.28Q248.49,243.91,248.49,243.91Q248.48,243.91,248.48,243.91Q248.47,243.91,246.59,243.23Q244.71,242.55,243.33,241.29Q241.96,240.02,240.84,239.10Q239.72,238.18,239.16,236.85Q238.60,235.53,237.35,234.39Q236.10,233.25,235.00,231.16Q233.91,229.06,232.94,227.61Q231.97,226.15,231.26,224.73Q230.56,223.31,229.73,221.65Q228.90,219.99,228.12,218.57Q227.34,217.15,226.99,215.34Q226.65,213.52,225.36,211.79Q224.07,210.07,222.91,207.68Q221.76,205.29,220.74,203.80Q219.73,202.31,218.71,200.80Q217.69,199.30,216.61,197.61Q215.53,195.91,214.76,194.02Q213.98,192.13,213.46,190.52Q212.94,188.91,212.26,187.49Q211.57,186.06,210.68,183.90Q209.79,181.75,208.85,179.34Q207.92,176.94,207.44,175.42Q206.96,173.89,206.31,172.52Q205.65,171.16,205.37,169.58Q205.08,168.01,204.38,165.55Q203.68,163.09,202.63,160.51Q201.58,157.93,201.07,155.26Q200.56,152.59,200.56,151.12Q200.57,149.66,200.62,148.12Q200.67,146.59,200.68,145.13Q200.70,143.66,200.76,142.15Q200.82,140.64,200.93,138.83Q201.04,137.03,201.62,135.00Q202.20,132.98,203.03,130.97Q203.86,128.96,204.61,126.69Q205.36,124.43,205.67,122.36Q205.98,120.29,207.73,119.14Q209.49,118.00,209.51,118.00Z" fill="#000" />
</svg>