<svg xmlns="http://www.w3.org/2000/svg" viewBox="202.82414065976855 44.455079869816586 407.65299066134537 275.58941067956306" width="407.65299066134537" height="275.58941067956306">
  <path d="M245.49,194.00Q245.49,194.00,244.53,191.39Q243.57,188.78,243.40,187.00Q243.22,185.22,243.19,183.65Q243.17,182.08,243.00,180.22Q242.84,178.35,242.71,176.48Q242.58,174.60,242.47,172.99Q242.36,171.38,241.89,169.69Q241.42,168.00,240.25,166.06Q239.09,164.12,238.80,162.20Q238.51,160.27,237.71,158.69Q236.91,157.11,236.30,155.55Q235.70,154.00,234.96,152.05Q234.22,150.10,233.15,148.09Q232.08,146.08,231.03,144.14Q229.98,142.19,229.83,140.28Q229.68,138.36,229.64,136.85Q229.59,135.34,229.54,133.84Q229.50,132.34,229.49,130.47Q229.47,128.60,229.52,126.73Q229.57,124.87,230.22,123.47Q230.88,122.07,231.71,120.25Q232.54,118.44,234.26,116.78Q235.98,115.12,237.58,114.07Q239.18,113.01,240.64,112.90Q242.09,112.79,244.41,113.18Q246.72,113.57,248.21,114.90Q249.70,116.23,250.18,118.70Q250.65,121.16,251.09,122.55Q251.52,123.94,251.57,125.65Q251.62,127.37,251.61,128.97Q251.60,130.57,251.94,133.66Q252.29,136.76,252.75,138.84Q253.20,140.93,253.23,143.11Q253.25,145.29,253.13,147.05Q253.00,148.80,252.94,150.37Q252.87,151.93,252.82,153.45Q252.77,154.96,252.66,156.84Q252.55,158.72,252.51,160.31Q252.47,161.91,252.45,163.43Q252.42,164.96,252.41,166.46Q252.39,167.97,252.42,170.50Q252.44,173.04,252.36,174.89Q252.29,176.73,252.27,178.32Q252.25,179.91,252.25,181.43Q252.24,182.96,252.24,184.45Q252.23,185.95,252.72,188.47Q253.22,190.99,253.25,192.49Q253.29,193.98,253.57,195.59Q253.85,197.20,254.35,199.26Q254.85,201.32,255.14,203.78Q255.43,206.24,255.78,208.26Q256.13,210.28,256.35,212.73Q256.56,215.17,257.07,217.07Q257.59,218.98,258.09,221.40Q258.59,223.82,259.31,225.91Q260.03,228.00,260.80,230.39Q261.56,232.78,262.32,234.36Q263.08,235.95,263.61,237.47Q264.13,238.99,265.07,240.95Q266.02,242.91,266.56,244.45Q267.10,246.00,267.64,247.54Q268.19,249.07,268.90,251.92Q269.62,254.77,270.58,257.16Q271.55,259.54,271.94,261.10Q272.34,262.65,273.14,264.84Q273.95,267.03,274.95,269.00Q275.95,270.96,276.26,272.94Q276.58,274.92,277.55,276.76Q278.53,278.61,279.13,280.24Q279.73,281.88,280.52,284.05Q281.30,286.21,282.41,287.34Q283.51,288.48,284.20,290.20Q284.90,291.91,285.49,293.05Q286.07,294.19,286.29,294.56Q286.52,294.94,286.64,295.36Q286.77,295.78,286.79,296.22Q286.82,296.66,286.73,297.09Q286.65,297.52,286.46,297.92Q286.28,298.32,286.00,298.66Q285.73,299.01,285.38,299.28Q285.03,299.54,284.63,299.72Q284.23,299.90,283.79,299.97Q283.36,300.04,282.92,300.01Q282.48,299.98,282.07,299.85Q281.65,299.71,281.27,299.48Q280.90,299.25,280.59,298.94Q280.29,298.62,280.34,296.43Q280.39,294.23,280.12,292.35Q279.85,290.47,279.89,288.23Q279.94,285.99,279.25,284.02Q278.56,282.05,277.88,279.60Q277.19,277.15,276.46,275.65Q275.73,274.16,274.62,272.49Q273.51,270.83,272.59,268.96Q271.68,267.10,270.35,264.71Q269.01,262.32,267.91,260.21Q266.80,258.11,265.85,256.67Q264.89,255.23,263.58,253.27Q262.27,251.31,261.27,249.98Q260.27,248.65,259.20,247.13Q258.13,245.60,256.50,244.05Q254.86,242.50,253.11,241.24Q251.36,239.98,249.95,239.27Q248.54,238.57,247.08,238.09Q245.62,237.61,243.12,236.62Q240.62,235.63,239.18,235.16Q237.73,234.70,236.09,234.18Q234.45,233.67,232.78,233.61Q231.11,233.54,229.61,233.57Q228.11,233.59,228.98,232.35Q229.85,231.10,231.84,230.65Q233.83,230.20,237.41,230.50Q240.99,230.80,242.67,230.86Q244.35,230.93,246.27,231.03Q248.19,231.14,249.79,231.16Q251.40,231.19,252.93,231.20Q254.45,231.21,256.59,231.15Q258.73,231.09,260.59,230.06Q262.46,229.02,264.42,228.45Q266.39,227.87,267.95,227.28Q269.51,226.69,271.20,226.23Q272.89,225.78,274.61,225.09Q276.34,224.40,277.90,223.90Q279.47,223.39,280.91,223.18Q282.34,222.96,283.91,222.18Q285.49,221.41,286.89,220.95Q288.28,220.49,290.32,219.42Q292.35,218.34,293.91,217.75Q295.46,217.16,297.32,216.44Q299.17,215.72,301.11,214.75Q303.04,213.77,304.68,212.68Q306.32,211.58,308.24,210.38Q310.16,209.18,309.63,211.00Q309.09,212.82,309.36,214.24Q309.62,215.66,309.62,217.63Q309.63,219.59,309.65,217.34Q309.66,215.09,310.91,211.84Q312.16,208.59,313.84,207.92Q315.52,207.25,317.39,208.19Q319.25,209.14,319.96,210.98Q320.67,212.82,321.51,214.00Q322.36,215.18,322.88,212.90Q323.39,210.62,324.53,207.92Q325.67,205.23,325.79,203.53Q325.91,201.82,325.92,199.76Q325.94,197.69,325.93,195.69Q325.93,193.69,325.93,191.68Q325.92,189.68,325.86,188.02Q325.79,186.35,325.77,184.88Q325.75,183.41,325.73,181.92Q325.71,180.43,325.43,177.35Q325.15,174.28,324.92,170.48Q324.69,166.68,324.38,165.23Q324.06,163.79,324.00,161.62Q323.95,159.45,323.93,157.82Q323.91,156.18,323.12,153.52Q322.33,150.87,322.17,149.07Q322.01,147.27,321.97,145.68Q321.93,144.09,321.97,142.20Q322.01,140.30,321.81,138.12Q321.60,135.95,321.48,134.13Q321.36,132.30,320.81,129.26Q320.26,126.21,319.65,124.08Q319.04,121.96,318.98,120.47Q318.93,118.99,318.83,116.85Q318.73,114.71,318.66,112.71Q318.58,110.71,318.09,108.36Q317.61,106.01,316.94,104.25Q316.28,102.49,315.59,100.84Q314.89,99.19,314.72,98.82Q314.54,98.44,314.46,98.03Q314.38,97.62,314.40,97.21Q314.41,96.79,314.53,96.39Q314.65,95.99,314.86,95.63Q315.07,95.27,315.36,94.97Q315.65,94.68,316.00,94.45Q316.35,94.23,316.75,94.10Q317.14,93.97,317.56,93.94Q317.97,93.91,318.38,93.98Q318.79,94.05,319.18,94.21Q319.56,94.37,319.89,94.63Q320.22,94.88,320.48,95.20Q320.75,95.52,320.72,97.40Q320.69,99.28,320.84,100.72Q321.00,102.16,321.03,103.76Q321.06,105.37,321.05,107.44Q321.03,109.51,321.06,110.95Q321.10,112.39,321.01,115.20Q320.92,118.00,320.88,120.52Q320.84,123.04,320.80,124.50Q320.76,125.97,321.14,128.86Q321.53,131.75,322.05,133.85Q322.57,135.95,323.33,137.46Q324.09,138.96,324.42,141.50Q324.74,144.05,325.07,145.63Q325.40,147.21,326.11,149.59Q326.83,151.97,327.59,153.97Q328.34,155.97,328.86,157.51Q329.38,159.05,329.62,160.51Q329.85,161.97,330.11,163.52Q330.37,165.08,331.12,166.43Q331.88,167.79,332.29,169.35Q332.70,170.92,333.31,172.30Q333.93,173.68,334.83,175.25Q335.73,176.82,336.30,178.41Q336.87,180.00,337.43,181.74Q337.98,183.49,338.86,185.67Q339.74,187.85,340.14,189.32Q340.54,190.80,341.21,192.37Q341.88,193.93,342.62,195.32Q343.35,196.71,343.89,198.28Q344.43,199.85,345.13,201.27Q345.83,202.69,346.91,204.71Q347.99,206.74,349.49,208.11Q350.99,209.49,352.57,208.74Q354.16,207.99,355.71,207.35Q357.27,206.71,358.40,205.53Q359.53,204.35,360.05,202.60Q360.57,200.85,361.27,199.38Q361.96,197.92,362.28,195.41Q362.59,192.90,362.63,190.80Q362.67,188.70,362.75,186.22Q362.82,183.75,362.81,182.09Q362.79,180.43,362.84,178.08Q362.88,175.73,362.86,174.08Q362.85,172.43,362.79,170.89Q362.73,169.34,362.69,168.34Q362.66,167.34,362.71,166.88Q362.77,166.42,362.93,165.99Q363.10,165.56,363.36,165.18Q363.62,164.79,363.97,164.49Q364.32,164.18,364.73,163.96Q365.14,163.75,365.59,163.64Q366.04,163.53,366.50,163.53Q366.96,163.53,367.41,163.64Q367.86,163.75,368.27,163.96Q368.68,164.18,369.03,164.49Q369.38,164.79,369.64,165.18Q369.90,165.56,370.07,165.99Q370.23,166.42,370.29,166.88Q370.34,167.34,370.31,168.77Q370.27,170.19,370.30,172.29Q370.33,174.39,370.38,176.02Q370.42,177.65,370.46,179.16Q370.51,180.66,371.42,183.17Q372.34,185.68,373.29,187.62Q374.24,189.56,375.05,191.28Q375.85,193.00,376.96,194.04Q378.06,195.08,379.60,196.80Q381.13,198.53,381.60,196.71Q382.07,194.90,383.03,193.51Q384.00,192.13,385.40,189.56Q386.80,186.99,387.83,184.14Q388.86,181.29,389.51,179.10Q390.16,176.91,390.56,174.18Q390.96,171.45,390.98,169.42Q390.99,167.39,391.55,166.01Q392.12,164.64,391.93,163.02Q391.75,161.40,392.37,158.96Q393.00,156.51,393.80,155.11Q394.60,153.71,395.89,153.03Q397.17,152.35,398.63,152.21Q400.09,152.07,402.73,152.83Q405.37,153.58,406.35,155.29Q407.33,157.00,408.30,158.82Q409.27,160.63,409.84,162.81Q410.42,164.99,410.97,167.14Q411.52,169.29,411.37,170.98Q411.22,172.67,411.69,174.32Q412.17,175.98,412.44,177.49Q412.72,179.01,412.98,180.70Q413.25,182.38,413.78,184.42Q414.32,186.46,411.16,186.82Q408.00,187.19,408.31,185.72Q408.61,184.25,409.14,182.58Q409.68,180.91,410.25,179.05Q410.82,177.18,411.33,175.73Q411.85,174.27,411.89,172.43Q411.94,170.58,411.99,168.17Q412.05,165.75,412.58,164.34Q413.10,162.92,413.52,161.56Q413.94,160.20,413.96,157.80Q413.97,155.41,414.53,154.06Q415.08,152.71,415.59,151.14Q416.09,149.57,416.59,148.02Q417.09,146.46,418.05,144.79Q419.00,143.11,420.96,142.13Q422.91,141.15,424.53,141.09Q426.15,141.03,428.03,141.01Q429.90,140.99,432.19,141.72Q434.48,142.45,436.34,144.92Q438.20,147.40,438.76,149.13Q439.31,150.86,439.81,152.89Q440.31,154.93,440.32,156.60Q440.33,158.28,441.17,160.44Q442.01,162.60,442.55,164.26Q443.08,165.92,443.79,167.34Q444.50,168.75,444.85,170.55Q445.21,172.34,445.69,174.22Q446.17,176.10,446.25,176.70Q446.34,177.30,446.72,177.58Q447.10,177.85,447.41,178.22Q447.71,178.58,447.92,179.00Q448.12,179.42,448.22,179.88Q448.32,180.34,448.31,180.82Q448.30,181.29,448.17,181.74Q448.04,182.19,447.81,182.61Q447.58,183.02,447.26,183.36Q446.94,183.70,446.54,183.96Q446.15,184.22,445.70,184.37Q445.26,184.53,444.79,184.57Q444.32,184.61,443.85,184.54Q443.39,184.47,442.95,184.29Q442.52,184.11,442.08,180.52Q441.64,176.92,442.22,174.66Q442.80,172.39,442.77,170.34Q442.73,168.29,443.24,166.74Q443.75,165.19,443.73,163.42Q443.70,161.64,443.69,160.13Q443.68,158.62,444.30,156.11Q444.91,153.60,445.31,151.94Q445.71,150.28,446.23,148.29Q446.75,146.30,447.30,144.89Q447.85,143.49,448.98,141.90Q450.11,140.31,450.99,139.03Q451.87,137.74,453.07,136.53Q454.27,135.33,455.69,135.20Q457.11,135.08,459.47,135.08Q461.84,135.08,464.29,135.16Q466.75,135.24,468.41,135.23Q470.07,135.23,472.85,136.06Q475.63,136.89,476.89,138.03Q478.15,139.17,478.98,140.96Q479.81,142.75,480.54,144.79Q481.27,146.83,481.48,148.27Q481.70,149.72,482.87,151.61Q484.04,153.50,484.77,155.09Q485.51,156.68,486.47,158.15Q487.44,159.63,488.52,161.22Q489.60,162.82,490.77,164.02Q491.94,165.22,493.69,166.20Q495.43,167.19,497.14,167.22Q498.85,167.26,500.83,167.28Q502.82,167.30,504.44,167.28Q506.07,167.27,508.08,167.23Q510.09,167.20,511.59,167.18Q513.09,167.17,514.89,166.97Q516.69,166.78,517.41,165.40Q518.13,164.01,519.53,162.69Q520.92,161.36,521.94,159.26Q522.97,157.15,523.39,155.79Q523.82,154.43,524.32,152.52Q524.82,150.61,525.22,148.45Q525.62,146.29,526.15,144.30Q526.67,142.31,527.20,139.34Q527.73,136.37,527.75,134.83Q527.77,133.28,528.36,131.87Q528.95,130.47,528.73,128.90Q528.51,127.34,528.48,125.84Q528.44,124.34,526.27,124.74Q524.10,125.13,522.04,125.06Q519.99,124.99,518.45,124.99Q516.92,124.99,515.38,125.03Q513.84,125.06,512.11,125.24Q510.38,125.43,510.50,127.23Q510.62,129.03,510.66,130.82Q510.69,132.60,510.60,134.84Q510.51,137.08,510.42,138.54Q510.33,140.00,510.29,142.05Q510.25,144.10,510.19,145.56Q510.12,147.01,510.14,148.68Q510.16,150.36,510.16,152.34Q510.15,154.32,510.17,155.94Q510.19,157.57,511.70,157.84Q513.20,158.12,514.68,158.08Q516.16,158.03,518.02,156.08Q519.88,154.12,520.92,152.17Q521.97,150.22,522.41,148.81Q522.86,147.40,523.24,145.79Q523.61,144.19,524.17,142.26Q524.72,140.34,525.41,137.86Q526.09,135.38,525.85,133.39Q525.60,131.40,526.29,129.28Q526.99,127.16,527.48,125.62Q527.96,124.09,528.08,123.49Q528.21,122.90,528.55,122.55Q528.89,122.20,529.30,121.94Q529.71,121.68,530.18,121.53Q530.64,121.38,531.13,121.34Q531.61,121.30,532.09,121.38Q532.57,121.46,533.02,121.65Q533.47,121.85,533.86,122.14Q534.25,122.43,534.55,122.81Q534.86,123.19,535.07,123.63Q535.28,124.08,535.37,124.55Q535.47,125.03,535.45,125.52Q535.42,126.01,535.29,126.47Q535.15,126.94,534.90,127.36Q534.66,127.78,535.54,129.85Q536.43,131.92,536.88,133.90Q537.34,135.88,538.00,137.31Q538.67,138.73,538.92,140.24Q539.17,141.75,540.08,143.02Q540.99,144.29,541.71,146.04Q542.44,147.80,543.14,150.26Q543.85,152.72,544.88,153.72Q545.92,154.71,546.48,156.23Q547.04,157.76,548.47,156.92Q549.91,156.08,551.49,156.08Q553.08,156.08,555.08,156.06Q557.09,156.04,558.59,156.04Q560.09,156.03,561.65,155.34Q563.22,154.64,564.63,152.83Q566.03,151.01,567.24,149.84Q568.44,148.68,569.25,146.75Q570.06,144.82,570.85,143.35Q571.65,141.87,572.68,139.92Q573.72,137.97,574.33,136.66Q574.93,135.36,576.49,132.39Q578.04,129.42,577.95,127.40Q577.87,125.39,578.43,124.02Q579.00,122.66,579.40,120.96Q579.79,119.27,580.26,117.71Q580.73,116.15,580.72,113.90Q580.72,111.66,581.34,109.12Q581.96,106.57,582.33,104.44Q582.70,102.30,582.64,100.82Q582.58,99.33,582.55,97.90Q582.52,96.47,580.97,94.51Q579.41,92.56,578.37,91.43Q577.33,90.31,574.82,88.41Q572.31,86.51,571.21,85.48Q570.12,84.46,568.07,82.61Q566.03,80.75,563.83,79.65Q561.63,78.55,559.32,77.43Q557.02,76.31,554.61,75.32Q552.19,74.33,550.13,73.99Q548.07,73.65,545.91,73.16Q543.75,72.66,540.84,72.17Q537.93,71.69,536.05,71.62Q534.17,71.56,531.80,71.52Q529.44,71.47,527.97,71.42Q526.50,71.37,523.61,71.27Q520.72,71.17,518.09,71.16Q515.47,71.14,513.34,71.17Q511.20,71.21,508.82,71.21Q506.44,71.21,504.04,71.17Q501.65,71.13,500.10,71.09Q498.56,71.06,497.05,71.03Q495.53,71.00,494.03,70.98Q492.53,70.96,491.03,70.94Q489.53,70.92,487.65,70.85Q485.78,70.77,483.81,70.68Q481.85,70.60,480.23,70.59Q478.61,70.58,477.08,70.59Q475.55,70.59,473.29,70.46Q471.04,70.32,468.98,70.26Q466.91,70.20,463.83,70.24Q460.74,70.29,458.11,70.37Q455.48,70.46,453.99,70.48Q452.51,70.50,450.00,70.57Q447.48,70.63,445.37,71.41Q443.26,72.19,441.08,72.36Q438.90,72.54,434.79,73.13Q430.68,73.73,428.98,74.20Q427.29,74.67,425.91,75.46Q424.52,76.26,421.49,76.42Q418.47,76.57,416.50,77.27Q414.54,77.98,412.71,78.28Q410.89,78.59,408.82,79.57Q406.75,80.55,404.57,81.26Q402.38,81.98,400.76,82.58Q399.13,83.19,396.57,83.90Q394.01,84.60,392.29,85.38Q390.57,86.16,388.92,86.81Q387.28,87.46,384.90,88.31Q382.53,89.16,381.05,89.83Q379.58,90.50,377.63,91.44Q375.68,92.39,373.21,93.41Q370.73,94.43,368.79,95.48Q366.86,96.53,364.82,97.61Q362.77,98.69,360.90,100.20Q359.03,101.71,356.82,102.34Q354.62,102.98,352.66,104.04Q350.71,105.11,349.25,106.39Q347.79,107.66,345.91,108.55Q344.03,109.44,342.90,110.38Q341.77,111.32,340.04,111.41Q338.32,111.49,337.02,112.52Q335.72,113.54,333.77,114.17Q331.81,114.80,330.88,115.90Q329.95,117.00,328.72,117.77Q327.50,118.54,325.39,119.56Q323.29,120.58,321.48,121.28Q319.68,121.97,318.44,123.13Q317.21,124.28,315.84,125.21Q314.47,126.14,313.22,126.91Q311.97,127.67,309.93,129.21Q307.89,130.74,306.64,131.56Q305.39,132.38,304.33,133.42Q303.26,134.47,301.28,135.91Q299.29,137.35,295.94,138.13Q292.59,138.92,292.59,138.92Q292.58,138.91,292.58,138.91Q292.58,138.91,292.65,136.28Q292.73,133.64,294.36,132.39Q295.99,131.14,297.60,129.57Q299.22,128.00,300.41,126.91Q301.59,125.82,303.92,124.31Q306.25,122.80,307.99,121.79Q309.73,120.78,311.79,119.26Q313.86,117.74,315.24,116.59Q316.62,115.44,318.28,114.84Q319.93,114.23,321.70,112.94Q323.47,111.65,325.86,110.36Q328.26,109.06,329.91,108.20Q331.57,107.33,333.15,106.55Q334.73,105.77,336.11,105.14Q337.49,104.50,338.91,104.19Q340.33,103.88,342.37,102.77Q344.40,101.66,345.60,100.85Q346.80,100.05,348.20,99.42Q349.60,98.79,351.47,97.83Q353.33,96.87,355.01,96.68Q356.69,96.49,357.78,95.31Q358.86,94.13,360.71,93.66Q362.56,93.19,364.60,92.24Q366.65,91.29,368.15,90.33Q369.64,89.37,371.20,88.94Q372.76,88.52,375.29,87.48Q377.82,86.44,379.86,85.55Q381.89,84.66,383.90,84.20Q385.90,83.73,387.43,83.20Q388.97,82.67,390.94,81.76Q392.92,80.84,395.52,80.45Q398.12,80.07,399.79,79.59Q401.46,79.11,403.42,78.48Q405.38,77.85,407.89,76.49Q410.39,75.13,411.91,75.03Q413.42,74.92,415.78,74.03Q418.14,73.13,420.39,72.84Q422.63,72.54,424.40,71.60Q426.16,70.66,428.05,70.14Q429.93,69.62,432.43,68.91Q434.93,68.20,436.73,67.75Q438.53,67.30,441.20,66.74Q443.86,66.18,445.65,65.78Q447.44,65.37,449.98,65.43Q452.51,65.50,453.99,65.52Q455.48,65.54,458.11,65.63Q460.74,65.71,463.83,65.76Q466.91,65.80,468.98,65.74Q471.04,65.68,473.29,65.54Q475.55,65.41,477.08,65.41Q478.61,65.42,480.23,65.41Q481.85,65.40,483.81,65.32Q485.78,65.23,487.65,65.15Q489.53,65.08,491.03,65.06Q492.53,65.04,494.03,65.02Q495.53,65.00,497.05,64.97Q498.56,64.94,500.10,64.91Q501.65,64.87,504.04,64.83Q506.44,64.79,508.82,64.79Q511.20,64.79,513.34,64.83Q515.47,64.86,518.09,64.84Q520.72,64.83,523.61,64.73Q526.51,64.63,529.36,64.54Q532.22,64.46,534.46,64.49Q536.69,64.52,538.56,64.67Q540.44,64.83,541.98,65.12Q543.52,65.41,545.83,65.89Q548.13,66.36,549.87,66.47Q551.61,66.57,553.75,67.62Q555.89,68.67,558.89,70.16Q561.88,71.64,563.31,71.89Q564.73,72.14,566.92,73.27Q569.10,74.39,570.46,75.42Q571.82,76.44,572.92,77.35Q574.02,78.26,575.28,79.48Q576.53,80.70,577.79,81.38Q579.05,82.05,580.34,82.86Q581.63,83.67,583.25,85.27Q584.88,86.87,585.82,88.26Q586.76,89.65,588.08,91.33Q589.39,93.01,589.94,94.61Q590.48,96.22,590.45,97.79Q590.42,99.36,590.32,101.18Q590.22,103.01,589.75,104.40Q589.29,105.78,588.74,107.87Q588.19,109.95,588.24,111.78Q588.29,113.61,588.26,115.09Q588.23,116.58,587.87,118.41Q587.51,120.24,586.82,121.64Q586.13,123.05,585.63,124.52Q585.12,125.98,585.07,128.18Q585.01,130.38,584.06,132.76Q583.11,135.13,582.25,136.83Q581.38,138.52,580.99,139.96Q580.59,141.40,579.64,143.43Q578.68,145.46,577.47,147.46Q576.26,149.45,575.42,151.04Q574.59,152.63,573.08,154.61Q571.58,156.60,570.09,158.53Q568.59,160.46,566.48,161.51Q564.37,162.56,561.63,163.25Q558.89,163.95,557.39,163.94Q555.90,163.94,553.87,163.91Q551.84,163.89,549.47,163.89Q547.09,163.89,545.65,163.75Q544.20,163.61,542.92,162.94Q541.65,162.27,540.93,161.02Q540.21,159.77,539.42,158.28Q538.63,156.80,537.80,155.34Q536.98,153.88,536.42,152.15Q535.86,150.42,534.83,148.64Q533.81,146.85,532.74,144.87Q531.66,142.88,531.14,141.32Q530.61,139.76,530.07,137.77Q529.54,135.79,529.14,134.18Q528.75,132.56,528.15,131.15Q527.55,129.73,527.50,128.23Q527.45,126.74,527.83,124.82Q528.21,122.90,528.55,122.55Q528.89,122.20,529.30,121.94Q529.71,121.68,530.18,121.53Q530.64,121.38,531.13,121.34Q531.61,121.30,532.09,121.38Q532.57,121.46,533.02,121.65Q533.47,121.85,533.86,122.14Q534.25,122.43,534.55,122.81Q534.86,123.19,535.07,123.63Q535.28,124.08,535.37,124.55Q535.47,125.03,535.45,125.52Q535.42,126.01,535.29,126.47Q535.15,126.94,534.90,127.36Q534.66,127.78,534.50,128.43Q534.35,129.08,533.86,130.84Q533.37,132.60,533.26,134.87Q533.15,137.13,532.63,139.14Q532.11,141.16,531.92,142.65Q531.73,144.15,531.03,146.12Q530.34,148.10,529.81,149.68Q529.28,151.26,528.41,153.92Q527.53,156.59,526.80,157.88Q526.07,159.17,525.11,160.53Q524.16,161.88,522.78,163.22Q521.40,164.56,519.28,165.28Q517.16,165.99,515.65,165.95Q514.14,165.91,512.24,165.80Q510.35,165.69,508.62,165.12Q506.88,164.55,505.55,163.22Q504.21,161.88,503.51,159.72Q502.81,157.57,502.83,155.94Q502.85,154.32,502.84,152.34Q502.84,150.36,502.86,148.68Q502.88,147.01,502.81,145.56Q502.75,144.10,502.71,142.05Q502.67,140.00,502.50,137.19Q502.34,134.38,502.33,132.88Q502.32,131.37,502.37,129.65Q502.42,127.93,502.86,126.19Q503.30,124.44,504.23,122.44Q505.17,120.44,506.36,119.39Q507.54,118.35,508.95,117.69Q510.35,117.04,512.10,116.99Q513.84,116.94,515.38,116.97Q516.92,117.01,518.45,117.01Q519.99,117.01,522.05,116.94Q524.10,116.87,526.12,116.87Q528.13,116.88,530.07,117.01Q532.01,117.14,533.56,118.61Q535.11,120.07,535.82,122.70Q536.54,125.34,536.50,126.85Q536.46,128.36,536.35,130.20Q536.24,132.05,535.77,133.79Q535.29,135.54,535.02,137.27Q534.75,139.00,534.48,140.53Q534.21,142.07,533.73,144.08Q533.26,146.09,532.82,147.95Q532.38,149.80,531.82,152.07Q531.26,154.33,530.79,156.30Q530.32,158.26,529.77,159.85Q529.22,161.45,528.40,163.01Q527.58,164.58,525.82,166.56Q524.07,168.54,523.02,169.74Q521.98,170.94,520.07,172.38Q518.17,173.81,516.57,174.31Q514.98,174.81,513.43,174.81Q511.89,174.80,510.39,174.79Q508.90,174.77,506.85,174.73Q504.81,174.69,502.79,174.70Q500.78,174.71,498.54,174.69Q496.30,174.68,494.34,174.47Q492.37,174.27,490.67,173.39Q488.96,172.51,487.65,171.29Q486.35,170.06,485.29,169.02Q484.24,167.98,483.23,166.97Q482.22,165.95,481.55,164.54Q480.88,163.13,479.86,161.55Q478.83,159.96,478.04,157.49Q477.25,155.03,476.01,153.80Q474.78,152.57,474.22,150.30Q473.67,148.02,472.93,146.09Q472.20,144.16,470.99,142.63Q469.77,141.11,470.96,141.98Q472.15,142.84,470.48,142.79Q468.80,142.74,466.68,142.77Q464.57,142.80,462.24,142.87Q459.90,142.95,458.41,142.75Q456.91,142.55,455.72,144.90Q454.54,147.25,453.86,148.67Q453.18,150.10,452.70,152.08Q452.23,154.06,451.77,156.34Q451.32,158.62,451.30,160.16Q451.29,161.69,451.24,163.85Q451.20,166.00,450.72,167.82Q450.25,169.63,450.17,171.32Q450.09,173.02,449.60,174.57Q449.11,176.13,448.96,177.55Q448.82,178.97,447.58,178.13Q446.34,177.30,446.72,177.58Q447.10,177.85,447.41,178.22Q447.71,178.58,447.92,179.00Q448.12,179.42,448.22,179.88Q448.32,180.34,448.31,180.81Q448.30,181.29,448.17,181.74Q448.05,182.19,447.81,182.61Q447.58,183.02,447.26,183.36Q446.94,183.70,446.54,183.96Q446.15,184.22,445.70,184.37Q445.26,184.53,444.79,184.57Q444.32,184.61,443.85,184.54Q443.39,184.47,442.95,184.29Q442.52,184.11,442.12,183.27Q441.72,182.42,440.89,181.06Q440.06,179.70,439.42,177.78Q438.79,175.86,438.27,174.39Q437.75,172.93,437.29,171.40Q436.84,169.88,436.32,168.28Q435.81,166.69,435.27,164.81Q434.74,162.94,433.70,160.90Q432.67,158.87,432.64,156.89Q432.62,154.92,432.11,153.42Q431.60,151.91,430.75,150.46Q429.90,149.01,428.03,148.99Q426.16,148.97,424.60,149.59Q423.03,150.21,422.51,151.69Q421.99,153.18,421.51,154.57Q421.02,155.96,421.01,158.00Q421.00,160.04,420.47,162.02Q419.95,164.01,419.51,166.34Q419.07,168.67,419.04,170.63Q419.01,172.58,418.76,174.34Q418.50,176.09,417.80,178.57Q417.11,181.05,416.67,183.10Q416.22,185.15,415.36,187.89Q414.49,190.64,411.43,190.89Q408.37,191.15,407.56,188.50Q406.76,185.86,406.26,183.74Q405.76,181.62,405.29,178.79Q404.81,175.96,404.29,174.47Q403.77,172.98,403.78,170.82Q403.80,168.65,403.38,166.79Q402.96,164.92,402.01,163.03Q401.06,161.13,400.58,159.68Q400.10,158.23,399.65,160.43Q399.21,162.62,399.12,164.32Q399.04,166.01,398.54,167.86Q398.05,169.72,397.79,171.82Q397.52,173.91,397.21,175.48Q396.89,177.04,396.31,178.79Q395.74,180.54,395.42,182.55Q395.10,184.57,394.50,186.56Q393.89,188.54,392.80,190.91Q391.71,193.27,390.81,195.18Q389.90,197.09,388.82,198.68Q387.74,200.26,386.74,201.32Q385.73,202.38,384.15,203.17Q382.57,203.96,380.38,204.35Q378.18,204.75,376.36,203.05Q374.54,201.35,373.03,199.96Q371.52,198.57,370.20,196.65Q368.88,194.73,367.39,192.32Q365.91,189.92,364.97,188.21Q364.04,186.50,363.27,183.58Q362.49,180.66,362.54,179.16Q362.58,177.65,362.62,176.02Q362.67,174.39,362.70,172.29Q362.73,170.19,362.69,168.77Q362.66,167.34,362.71,166.88Q362.77,166.42,362.93,165.99Q363.10,165.56,363.36,165.18Q363.62,164.79,363.97,164.49Q364.32,164.18,364.73,163.96Q365.14,163.75,365.59,163.64Q366.04,163.53,366.50,163.53Q366.96,163.53,367.41,163.64Q367.86,163.75,368.27,163.96Q368.68,164.18,369.03,164.49Q369.38,164.79,369.64,165.18Q369.90,165.56,370.07,165.99Q370.23,166.42,370.29,166.88Q370.34,167.34,370.29,168.85Q370.23,170.35,370.17,172.02Q370.11,173.70,370.12,175.79Q370.13,177.88,370.15,179.79Q370.17,181.70,370.19,183.82Q370.21,185.94,370.28,188.35Q370.35,190.75,370.43,193.25Q370.51,195.75,370.14,198.10Q369.76,200.46,369.08,202.31Q368.40,204.16,367.22,206.02Q366.04,207.88,364.52,209.92Q363.00,211.96,361.15,213.44Q359.29,214.92,356.73,215.46Q354.16,216.01,352.63,215.96Q351.10,215.92,349.66,215.79Q348.23,215.66,346.60,214.02Q344.96,212.37,343.57,211.52Q342.17,210.67,341.28,208.78Q340.39,206.88,339.14,204.60Q337.90,202.31,337.12,200.54Q336.34,198.76,335.38,196.36Q334.43,193.97,333.76,192.24Q333.09,190.51,332.54,188.40Q331.99,186.29,330.98,184.10Q329.97,181.91,329.77,180.30Q329.56,178.69,328.34,176.87Q327.12,175.05,326.16,172.22Q325.20,169.40,324.64,167.97Q324.08,166.54,323.54,164.61Q323.00,162.69,322.54,160.89Q322.07,159.09,321.56,157.37Q321.04,155.64,320.72,154.02Q320.39,152.40,319.74,150.71Q319.09,149.02,318.63,147.31Q318.18,145.59,318.18,143.89Q318.19,142.18,317.72,140.83Q317.26,139.48,316.77,137.36Q316.28,135.24,315.72,132.49Q315.17,129.74,314.70,127.87Q314.24,126.01,314.20,124.53Q314.16,123.04,314.12,120.52Q314.08,118.00,313.99,115.20Q313.90,112.39,313.94,110.95Q313.97,109.51,313.95,107.44Q313.94,105.37,313.97,103.76Q314.00,102.15,314.45,100.67Q314.89,99.19,314.72,98.82Q314.54,98.44,314.46,98.03Q314.38,97.62,314.40,97.21Q314.41,96.79,314.53,96.39Q314.65,95.99,314.86,95.63Q315.07,95.27,315.36,94.97Q315.65,94.68,316.00,94.45Q316.35,94.23,316.75,94.10Q317.14,93.97,317.56,93.94Q317.97,93.91,318.38,93.98Q318.79,94.05,319.18,94.21Q319.56,94.37,319.89,94.63Q320.22,94.88,320.48,95.20Q320.75,95.52,321.19,96.06Q321.63,96.59,322.20,97.96Q322.77,99.32,322.65,101.07Q322.54,102.82,323.05,105.00Q323.57,107.18,323.99,108.92Q324.42,110.66,324.35,112.68Q324.27,114.70,324.19,116.80Q324.11,118.90,324.09,120.94Q324.07,122.98,324.51,125.75Q324.96,128.51,325.36,130.28Q325.77,132.04,325.84,133.65Q325.91,135.26,326.46,137.76Q327.00,140.27,327.06,142.13Q327.11,143.99,327.22,146.78Q327.32,149.57,327.81,151.26Q328.31,152.95,328.72,154.49Q329.12,156.02,329.16,157.60Q329.19,159.18,329.34,160.85Q329.48,162.53,329.96,164.46Q330.45,166.40,330.71,168.30Q330.97,170.21,331.60,173.28Q332.23,176.35,332.76,178.37Q333.29,180.39,333.27,181.90Q333.25,183.41,333.23,184.88Q333.21,186.35,333.14,188.02Q333.08,189.68,333.07,191.69Q333.07,193.69,333.07,195.70Q333.06,197.71,333.05,199.85Q333.05,201.99,332.85,204.59Q332.66,207.18,332.22,209.26Q331.78,211.33,331.14,213.28Q330.50,215.23,329.82,216.62Q329.14,218.02,327.76,219.53Q326.37,221.03,325.05,221.82Q323.73,222.61,321.41,222.83Q319.09,223.05,317.70,222.31Q316.31,221.57,315.80,220.18Q315.29,218.79,313.73,216.41Q312.17,214.04,313.57,214.48Q314.97,214.93,316.88,214.17Q318.78,213.41,318.68,214.86Q318.57,216.32,317.59,218.82Q316.60,221.32,315.32,223.25Q314.04,225.18,312.35,226.14Q310.66,227.09,308.77,227.14Q306.89,227.18,305.06,226.26Q303.23,225.33,302.28,223.49Q301.34,221.65,301.36,220.03Q301.39,218.40,301.39,216.52Q301.40,214.64,301.51,212.75Q301.61,210.86,302.56,208.84Q303.51,206.83,306.63,205.54Q309.75,204.25,311.16,205.56Q312.57,206.87,313.44,208.64Q314.31,210.40,314.15,211.88Q314.00,213.35,312.94,214.57Q311.88,215.80,309.46,217.50Q307.04,219.20,305.43,219.76Q303.82,220.31,301.06,221.85Q298.30,223.39,295.87,224.33Q293.43,225.28,291.39,226.27Q289.34,227.26,287.65,227.75Q285.96,228.24,283.74,228.78Q281.51,229.31,279.07,230.28Q276.62,231.25,274.79,232.26Q272.95,233.27,271.45,233.16Q269.94,233.05,268.56,233.64Q267.17,234.24,264.52,235.14Q261.87,236.04,260.36,236.47Q258.85,236.91,256.65,236.85Q254.45,236.79,252.93,236.80Q251.40,236.81,249.79,236.84Q248.19,236.86,246.27,236.97Q244.35,237.07,242.67,237.14Q240.99,237.20,238.77,237.44Q236.56,237.68,234.18,237.74Q231.81,237.81,229.50,237.71Q227.20,237.60,225.92,236.91Q224.64,236.22,223.73,233.79Q222.82,231.37,223.83,229.56Q224.84,227.76,227.40,227.09Q229.97,226.43,231.77,226.50Q233.58,226.56,236.10,227.02Q238.63,227.47,241.12,228.20Q243.61,228.93,245.17,229.49Q246.73,230.05,248.20,230.78Q249.68,231.51,251.79,232.35Q253.90,233.19,256.00,234.82Q258.10,236.45,259.71,238.21Q261.32,239.96,262.85,241.49Q264.38,243.01,265.63,244.52Q266.88,246.03,268.22,247.94Q269.55,249.85,270.55,251.70Q271.56,253.54,272.52,255.46Q273.49,257.39,274.68,259.27Q275.88,261.15,277.28,263.85Q278.69,266.54,279.79,267.84Q280.89,269.14,281.93,271.28Q282.96,273.41,283.47,274.83Q283.98,276.26,284.53,278.06Q285.08,279.86,285.59,281.23Q286.11,282.60,286.58,284.23Q287.06,285.86,287.10,288.18Q287.15,290.50,287.16,292.59Q287.17,294.68,286.81,296.33Q286.45,297.97,286.26,296.08Q286.07,294.19,286.29,294.56Q286.52,294.94,286.64,295.36Q286.77,295.78,286.79,296.22Q286.82,296.66,286.73,297.09Q286.65,297.52,286.46,297.92Q286.28,298.32,286.00,298.66Q285.73,299.01,285.38,299.28Q285.03,299.54,284.63,299.72Q284.23,299.89,283.79,299.97Q283.36,300.04,282.92,300.01Q282.48,299.98,282.07,299.85Q281.65,299.71,281.27,299.48Q280.90,299.25,280.59,298.94Q280.29,298.62,279.81,297.75Q279.34,296.87,278.95,295.35Q278.56,293.83,278.15,292.37Q277.74,290.92,276.43,288.78Q275.13,286.63,274.27,284.45Q273.40,282.26,272.88,280.71Q272.37,279.16,271.37,277.50Q270.38,275.84,269.89,273.74Q269.40,271.63,268.37,269.27Q267.34,266.92,266.81,264.66Q266.29,262.41,265.25,260.63Q264.21,258.85,263.72,256.26Q263.22,253.67,262.25,251.38Q261.27,249.08,260.78,247.39Q260.30,245.69,259.25,243.41Q258.20,241.12,257.22,238.76Q256.24,236.39,255.75,234.92Q255.27,233.46,254.79,231.96Q254.32,230.47,253.78,229.14Q253.24,227.81,252.74,225.13Q252.24,222.45,251.77,220.42Q251.31,218.39,250.86,216.91Q250.41,215.43,250.38,213.63Q250.36,211.84,249.95,209.11Q249.54,206.39,249.57,204.81Q249.60,203.24,249.12,200.75Q248.63,198.27,248.16,196.18Q247.68,194.10,247.64,191.86Q247.61,189.62,247.19,187.81Q246.77,185.99,246.76,184.47Q246.76,182.96,246.75,181.43Q246.75,179.91,246.73,178.32Q246.71,176.73,246.64,174.89Q246.56,173.04,246.58,170.50Q246.61,167.97,246.59,166.46Q246.58,164.96,246.55,163.43Q246.53,161.91,246.49,160.31Q246.45,158.72,246.34,156.84Q246.23,154.96,246.18,153.45Q246.13,151.93,246.06,150.37Q245.99,148.81,245.85,146.11Q245.71,143.41,245.68,141.97Q245.64,140.52,245.06,138.12Q244.48,135.72,243.96,134.10Q243.45,132.48,243.43,130.91Q243.41,129.34,243.40,127.08Q243.39,124.82,243.28,123.03Q243.17,121.24,241.28,121.31Q239.38,121.39,238.93,122.75Q238.48,124.10,238.01,126.35Q237.53,128.60,237.51,130.47Q237.50,132.34,237.46,133.84Q237.41,135.34,237.37,136.83Q237.32,138.33,237.50,139.77Q237.69,141.21,238.62,143.51Q239.54,145.81,240.70,148.52Q241.85,151.23,242.65,153.39Q243.44,155.55,244.07,157.59Q244.69,159.63,245.21,161.46Q245.72,163.28,246.74,165.62Q247.76,167.96,248.20,169.63Q248.64,171.31,248.53,172.95Q248.42,174.60,248.29,176.48Q248.16,178.35,248.00,180.22Q247.83,182.08,247.81,183.65Q247.78,185.22,247.60,187.00Q247.43,188.78,246.47,191.39Q245.51,194.00,245.49,194.00Z" fill="#000" />
  <path d="M358.51,125.00Q358.51,125.00,359.37,126.53Q360.23,128.05,360.57,129.86Q360.91,131.67,360.92,132.54Q360.92,133.41,360.87,133.82Q360.82,134.23,360.67,134.62Q360.52,135.00,360.29,135.34Q360.05,135.68,359.74,135.95Q359.43,136.22,359.07,136.41Q358.70,136.60,358.30,136.70Q357.90,136.80,357.49,136.80Q357.08,136.80,356.68,136.70Q356.28,136.60,355.91,136.40Q355.55,136.21,355.24,135.94Q354.93,135.66,354.70,135.32Q354.47,134.98,354.32,134.60Q354.18,134.21,354.13,133.80Q354.08,133.39,354.23,131.86Q354.38,130.34,354.98,128.22Q355.57,126.09,355.58,126.09Q355.58,126.09,355.59,126.08Q355.59,126.08,358.11,128.21Q360.62,130.34,360.77,131.88Q360.92,133.41,360.87,133.82Q360.82,134.23,360.67,134.62Q360.52,135.00,360.29,135.34Q360.05,135.68,359.74,135.95Q359.43,136.22,359.07,136.41Q358.70,136.60,358.30,136.70Q357.90,136.80,357.49,136.80Q357.08,136.80,356.68,136.70Q356.28,136.60,355.91,136.40Q355.55,136.21,355.24,135.94Q354.93,135.66,354.70,135.32Q354.47,134.98,354.32,134.60Q354.18,134.21,354.13,133.80Q354.08,133.39,354.20,131.44Q354.33,129.49,354.80,127.95Q355.28,126.42,356.88,125.71Q358.49,125.00,358.51,125.00Z" fill="#000" />
</svg>